<svg xmlns="http://www.w3.org/2000/svg" viewBox="0 0 1162.01 856.51"><defs><style>.cls-1,.cls-3{fill:#eee;}.cls-2{fill:#fbb03b;}.cls-3{font-size:44px;font-family:Poppins-SemiBold, Poppins;font-weight:600;letter-spacing:0.4em;}.cls-4{letter-spacing:0.42em;}.cls-5{letter-spacing:0.42em;}.cls-6{letter-spacing:0.41em;}.cls-7{letter-spacing:0.42em;}.cls-8{letter-spacing:0.42em;}.cls-9{letter-spacing:0.43em;}.cls-10{letter-spacing:0.44em;}.cls-11{letter-spacing:0.43em;}.cls-12{letter-spacing:0.41em;}.cls-13{letter-spacing:0.41em;}.cls-14{letter-spacing:0.43em;}.cls-15{letter-spacing:0.42em;}.cls-16{letter-spacing:0.43em;}.cls-17{letter-spacing:0.42em;}</style></defs><g id="Capa_2" data-name="Capa 2"><g id="Capa_1-2" data-name="Capa 1"><polygon points="862.08 578.84 862.08 594.86 833.05 607.03 833.05 592.81 862.08 578.84"/><path class="cls-1" d="M844.59,249.75a250.62,250.62,0,0,1-2.39,34.66,249.8,249.8,0,0,1-247.36,215.1H451.67V249.7H567.06v71.44H523.11V427.87l72.94-.17c41.1,0,77.69-15.24,107.71-38.78a177,177,0,0,0,53.46-69.33,173.84,173.84,0,0,0,10.93-35.18s2.53-26.33,2.52-35.14c0-8.46-2.52-33.79-2.52-33.79a3.94,3.94,0,0,0-.07-.77A174.34,174.34,0,0,0,757,179.38a177.17,177.17,0,0,0-53.9-69.33c-29.9-23.22-67.46-38.59-108.24-38.59H451.67V0H594.84A249.55,249.55,0,0,1,844.59,249.75Z"/><path class="cls-1" d="M787.18,609.16a15.81,15.81,0,1,1,4.47-11A14.83,14.83,0,0,1,787.18,609.16Z"/><rect class="cls-1" x="763.14" y="617.76" width="26.35" height="88.24"/><path class="cls-1" d="M94.76,610.31q-16.65-15-42.53-14.95H40.51V615.3H52.23q15.1,0,23.73,9.2t8.63,24.69q0,15.49-8.63,24.7t-23.73,9.2H40.51V703H52.23q25.89,0,42.53-15t16.64-38.87Q111.4,625.27,94.76,610.31Z"/><path class="cls-1" d="M145.49,606.07a15.82,15.82,0,1,1,4.47-11A14.88,14.88,0,0,1,145.49,606.07Z"/><rect class="cls-1" x="121.45" y="614.67" width="26.35" height="88.24"/><path class="cls-1" d="M200.12,702.79q-18.8,0-30.82-12.1t-12-32.13q0-20,11.94-31.9t30.9-11.87q19,0,31.44,11.72T244,659a52.74,52.74,0,0,1-.62,8.32H184.25a15,15,0,0,0,14.41,12.95,21,21,0,0,0,7.47-1,13.36,13.36,0,0,0,3.62-2,25.87,25.87,0,0,0,3-3.31h28.51a37.79,37.79,0,0,1-14.8,20.88Q215.39,702.79,200.12,702.79Zm11.25-61.72a16.75,16.75,0,0,0-10.94-3.78,15.55,15.55,0,0,0-10.63,3.78,16.45,16.45,0,0,0-5.4,9.78h32.21A14,14,0,0,0,211.37,641.07Z"/><path class="cls-1" d="M841.58,705.88q-18.8,0-30.82-12.1t-12-32.13q0-20,11.94-31.9t30.9-11.86q19,0,31.44,11.71t12.48,32.51a53,53,0,0,1-.62,8.33H825.71a15,15,0,0,0,14.41,12.94,21,21,0,0,0,7.47-1,13.65,13.65,0,0,0,3.62-2,27.66,27.66,0,0,0,3-3.32h28.51a37.79,37.79,0,0,1-14.8,20.88Q856.85,705.89,841.58,705.88Zm11.25-61.72a16.75,16.75,0,0,0-10.94-3.78,15.55,15.55,0,0,0-10.63,3.78,16.44,16.44,0,0,0-5.4,9.79h32.21A14,14,0,0,0,852.83,644.16Z"/><path class="cls-1" d="M1049.16,705.88q-18.79,0-30.82-12.1t-12-32.13q0-20,11.94-31.9t30.9-11.86q19,0,31.44,11.71t12.48,32.51a53,53,0,0,1-.62,8.33h-59.17a15,15,0,0,0,14.41,12.94,21,21,0,0,0,7.47-1,13.65,13.65,0,0,0,3.62-2,27.66,27.66,0,0,0,3-3.32h28.51a37.79,37.79,0,0,1-14.8,20.88Q1064.42,705.89,1049.16,705.88Zm11.25-61.72a16.75,16.75,0,0,0-10.94-3.78,15.55,15.55,0,0,0-10.63,3.78,16.44,16.44,0,0,0-5.4,9.79h32.21A14,14,0,0,0,1060.41,644.16Z"/><path class="cls-1" d="M261.32,690.46q-11.41-12.33-11.41-31.59t11.41-31.67q11.4-12.41,27.81-12.41T314.33,627v-12.3h26.35v86.58q0,18-9.86,30a31.83,31.83,0,0,1-13.48,9.55,53.56,53.56,0,0,1-19.81,3.39q-19.72,0-31.28-8c-7.71-5.34-12.07-12.49-13.1-23.48H279c2.47,6.47,8.63,8.68,18.49,8.68a16.14,16.14,0,0,0,12-4.85q4.79-4.86,4.78-15.33v-12q-9.56,13.56-25.58,13.56T261.32,690.46Zm47.31-16q5.7-5.55,5.7-15.72t-5.7-15.64a18.33,18.33,0,0,0-26.2.08q-5.7,5.55-5.7,15.72t5.7,15.64a18.33,18.33,0,0,0,26.2-.08Z"/><path class="cls-1" d="M503,691.91q-16.11-15.63-16.11-39.68T503,612.55q16.1-15.64,39.37-15.64a55.59,55.59,0,0,1,32.06,9.55A49.87,49.87,0,0,1,594,633H562.53q-6.16-11.87-19.73-11.87t-21.34,8.48q-7.79,8.48-7.78,22.65t7.78,22.65q7.78,8.49,20.88,8.48,9.4,0,15.34-4.7a22.63,22.63,0,0,0,7.93-12.56H535.1v-20H594v20q-2.94,14.79-16.18,27.58a48.85,48.85,0,0,1-15.65,10,51.26,51.26,0,0,1-19.8,3.85Q519.08,707.55,503,691.91Z"/><path class="cls-1" d="M663.71,617.76h26.36v88.29H663.71V692.26q-8.16,13.77-26,13.77-14.79,0-24-10t-9.17-27.24v-51h26.2v47.42q0,8.46,4.39,13.07t12.09,4.62q7.71,0,12.1-4.62t4.39-13.07Z"/><path class="cls-1" d="M410,617.76h26.35v88.29H410V692.26Q401.84,706,384,706q-14.81,0-24-10t-9.17-27.24v-51H377v47.42q0,8.46,4.39,13.07t12.1,4.62q7.71,0,12.1-4.62T410,665.18Z"/><path class="cls-1" d="M742.51,684.28h9.4v21.58H738.5c-9.66,0-17.13-1.36-22.42-5.63s-7.94-11.58-7.94-22V642.52h-8V620.64h8V598.15h26.35v22.49h17.26v21.88H734.49v35.75Q734.49,684.29,742.51,684.28Z"/><path class="cls-1" d="M921.64,617.66V635q9.24-17.22,24.65-17.22v29.37h-6.47q-9.09,0-13.64,4.38t-4.54,15.34V706H895.28V617.66Z"/><path class="cls-1" d="M979.44,618v17q9.24-17.22,24.66-17.22v29.37h-6.47q-9.11,0-13.64,4.38t-4.55,15.34V706H953.09V618Z"/><path class="cls-1" d="M1162,617.89V640.1l-33,43.49h33V705.8h-64V683.59l33-43.49h-33V617.89Z"/><polygon class="cls-2" points="388.75 71.46 388.75 428.03 424.41 428.03 424.41 499.47 388.75 499.47 388.75 499.48 317.42 499.48 317.42 0.02 424.41 0.02 424.41 71.46 388.75 71.46"/><path class="cls-2" d="M23.87,619.61V683.1H40.51V703H0V595.36H40.51V615.3H23.87Z"/><text class="cls-3" transform="translate(184.4 835.57)">F<tspan class="cls-4" x="41.36" y="0">r</tspan><tspan class="cls-5" x="77.61" y="0">o</tspan><tspan class="cls-6" x="124.57" y="0">n</tspan><tspan class="cls-7" x="172.42" y="0">t</tspan><tspan class="cls-8" x="208.13" y="0">e</tspan><tspan class="cls-9" x="254.25" y="0">n</tspan><tspan class="cls-10" x="302.59" y="0">d </tspan><tspan class="cls-11" x="384.39" y="0">D</tspan><tspan class="cls-12" x="435.24" y="0">e</tspan><tspan class="cls-13" x="480.56" y="0">v</tspan><tspan class="cls-14" x="524.82" y="0">e</tspan><tspan class="cls-15" x="570.99" y="0">l</tspan><tspan class="cls-5" x="602.49" y="0">o</tspan><tspan class="cls-16" x="649.46" y="0">p</tspan><tspan class="cls-17" x="698.7" y="0">e</tspan><tspan class="cls-10" x="744.82" y="0">r</tspan></text></g></g></svg>