<?xml version="1.0" standalone="no"?>
<!DOCTYPE svg PUBLIC "-//W3C//DTD SVG 20010904//EN"
 "http://www.w3.org/TR/2001/REC-SVG-20010904/DTD/svg10.dtd">
<svg version="1.0" xmlns="http://www.w3.org/2000/svg"
 width="2902.000000pt" height="2066.000000pt" viewBox="0 0 2902.000000 2066.000000"
 preserveAspectRatio="xMidYMid meet">
<metadata>
Created by potrace 1.16, written by Peter Selinger 2001-2019
</metadata>
<g transform="translate(0.000000,2066.000000) scale(0.100000,-0.100000)"
fill="#000000" stroke="none">
<path d="M0 13707 c0 -6933 0 -6952 20 -6990 22 -40 26 -67 10 -67 -5 0 -14 8
-19 18 -7 11 -10 -1050 -11 -3325 l0 -3343 7109 0 c6306 0 7110 2 7121 15 7 8
21 15 31 15 10 0 21 5 24 10 4 6 10 8 14 6 17 -11 139 -6 174 7 51 19 64 32
47 52 -18 22 4 45 45 45 19 0 39 8 50 20 14 15 31 20 72 20 30 0 68 7 85 16
30 15 31 17 13 30 -10 7 -23 15 -29 18 -11 5 49 69 75 79 11 4 9 10 -9 26 -18
16 -28 18 -42 11 -26 -14 -28 -13 -32 18 -4 40 -41 42 -74 4 -17 -19 -33 -28
-45 -25 -24 7 -24 22 -1 30 9 4 29 15 43 26 34 25 88 37 182 41 92 5 114 18
77 46 -23 18 -78 26 -150 23 -57 -3 -91 8 -100 33 -6 14 -18 24 -29 24 -26 0
-88 -35 -129 -74 -29 -27 -35 -29 -62 -19 -26 10 -34 8 -69 -18 -23 -16 -47
-26 -56 -23 -8 4 -26 -1 -39 -9 -13 -9 -42 -15 -64 -14 -26 1 -48 -5 -60 -16
-24 -22 -42 -22 -42 1 0 29 21 42 67 42 24 0 43 4 43 8 0 14 -43 50 -64 54
-31 5 -28 21 9 45 35 23 38 46 8 57 -13 5 -122 -74 -131 -96 -2 -5 -11 -8 -20
-8 -10 0 -34 -9 -55 -20 -46 -25 -84 -27 -49 -3 13 9 22 26 22 40 0 22 3 24
25 19 28 -7 64 19 96 70 23 38 61 48 131 33 50 -11 108 -2 148 22 8 5 31 17
50 25 32 15 49 27 129 94 13 11 28 20 33 20 4 0 8 9 8 20 0 11 -5 20 -10 20
-16 0 -54 -23 -68 -43 -7 -9 -18 -17 -24 -17 -6 0 -26 -14 -45 -30 -53 -47
-126 -80 -177 -80 l-45 0 2 37 c2 34 -1 38 -30 46 -18 6 -33 14 -33 19 0 5 9
7 19 3 11 -3 28 -2 38 3 10 6 30 15 46 21 29 11 36 38 15 59 -10 10 -10 15 2
22 8 5 23 10 33 10 9 0 17 6 17 14 0 8 9 18 20 21 28 9 25 33 -4 41 -25 6 -96
-21 -96 -37 0 -5 -4 -9 -10 -9 -5 0 -10 9 -10 20 0 25 -20 25 -70 0 -47 -24
-50 -24 -50 -5 0 17 -27 20 -32 4 -6 -18 -43 -1 -58 25 -15 29 -7 46 23 46 50
0 107 56 77 75 -6 4 15 22 47 42 32 19 73 46 91 60 32 24 38 25 210 27 179 2
222 10 222 43 0 16 -5 16 -115 -2 -102 -17 -193 -19 -214 -6 -12 7 -4 20 35
61 27 29 59 56 71 61 13 4 20 14 18 21 -3 7 40 60 95 117 55 58 100 107 100
109 0 2 27 33 60 69 33 36 60 71 60 78 0 7 7 18 15 25 24 20 19 50 -8 50 -27
0 -47 -17 -47 -40 0 -25 -57 -99 -84 -110 -14 -5 -27 -18 -30 -28 -4 -11 -21
-36 -40 -55 -18 -19 -54 -60 -80 -91 -27 -31 -55 -56 -63 -56 -8 0 -20 -15
-28 -33 -7 -17 -34 -52 -58 -76 l-45 -43 -7 58 c-3 33 -10 75 -15 94 -5 19
-11 44 -12 55 -2 12 -11 20 -23 20 -16 0 -20 -7 -20 -30 0 -16 6 -43 14 -59
18 -38 31 -157 18 -174 -18 -23 -34 -12 -45 30 -43 166 -42 161 -25 173 14 10
12 14 -11 32 -14 12 -26 29 -26 38 0 12 -5 15 -17 10 -10 -4 -27 -9 -38 -12
l-20 -4 20 16 c11 9 31 18 45 21 44 10 52 14 48 26 -2 6 -11 15 -19 18 -44 21
-54 29 -57 47 -2 10 6 27 18 38 30 27 27 57 -6 53 -18 -2 -33 -15 -48 -43 -23
-40 -87 -94 -143 -120 -64 -30 -89 -12 -49 36 48 57 33 65 -81 43 -51 -10 -97
-25 -109 -36 -19 -17 -44 -24 -44 -13 0 23 37 69 66 81 19 8 34 20 34 28 0 16
72 66 95 66 22 0 30 27 14 46 -9 11 -22 14 -45 9 -26 -4 -35 -2 -43 13 -14 27
-8 30 51 20 29 -5 71 -10 93 -11 34 -2 40 1 40 18 0 17 -9 21 -69 28 -50 5
-75 13 -88 27 -11 11 -14 20 -7 20 6 0 33 21 60 47 44 43 139 103 164 103 6 0
18 12 29 26 24 33 8 54 -26 35 -13 -7 -39 -21 -58 -31 -19 -10 -55 -19 -79
-20 -31 0 -54 -7 -77 -25 -46 -36 -84 -49 -84 -30 0 8 -7 15 -16 15 -25 0 -11
24 24 40 17 8 32 20 32 27 0 7 9 17 20 23 11 6 19 17 18 24 -4 17 130 166 148
166 8 0 14 10 14 22 0 11 11 36 25 54 38 49 85 140 85 162 0 23 -36 40 -52 24
-5 -5 -11 -23 -13 -40 -5 -36 -29 -88 -48 -99 -7 -4 -25 -28 -39 -53 -14 -25
-37 -55 -51 -67 -14 -11 -30 -29 -35 -39 -9 -16 -15 -17 -39 -8 -16 6 -38 8
-49 3 -11 -4 -32 -5 -47 -2 -21 4 -27 11 -27 30 0 21 -4 25 -24 21 -19 -4 -22
-1 -18 16 3 12 11 30 19 41 7 11 13 22 13 25 0 7 -112 -4 -152 -15 -24 -6 -28
-4 -28 13 0 12 10 28 21 36 14 9 19 21 15 31 -3 9 -2 24 3 33 4 9 11 41 14 71
l6 53 -30 -6 c-30 -6 -30 -5 -26 34 4 43 48 100 77 100 16 0 40 18 40 31 0 4
-16 14 -36 24 -34 16 -96 15 -141 -2 -11 -4 -12 3 -7 38 4 24 11 45 15 47 12
5 -1 32 -16 32 -8 0 -11 7 -8 18 2 10 -2 24 -11 31 -12 10 -14 9 -9 -7 3 -12
-1 -22 -11 -25 -9 -4 -16 -2 -16 4 0 6 -4 8 -9 4 -6 -3 -14 3 -20 12 -9 16
-10 16 -11 -4 0 -13 -4 -23 -9 -23 -5 0 -15 -2 -23 -5 -7 -3 -17 5 -23 17 -8
18 -18 23 -45 23 -22 0 -40 7 -48 18 -24 31 -72 15 -72 -25 0 -10 -7 -18 -15
-18 -11 0 -15 -11 -15 -36 0 -19 -5 -45 -11 -56 -9 -18 -9 -20 4 -15 18 7 33
-23 16 -34 -8 -5 -8 -16 1 -44 7 -21 13 -60 14 -86 1 -47 -6 -61 -19 -38 -5 6
-13 2 -22 -11 -14 -20 -14 -24 6 -51 16 -22 18 -29 7 -29 -23 0 -27 -62 -5
-86 10 -11 19 -28 19 -37 0 -9 4 -18 9 -21 5 -3 8 -30 6 -58 -3 -51 -6 -66
-26 -116 -5 -13 -9 -31 -9 -42 0 -17 -4 -18 -29 -9 -21 7 -36 7 -50 -1 -27
-14 -26 -19 4 -64 l24 -36 -28 0 c-15 0 -49 -11 -75 -25 -59 -31 -148 -57
-169 -49 -19 7 -22 20 -7 29 6 4 22 30 37 58 14 29 36 62 49 74 14 13 21 28
18 37 -8 21 -54 21 -54 1 0 -8 -4 -15 -10 -15 -5 0 -10 -6 -10 -14 0 -25 -30
-46 -65 -46 -19 0 -46 -5 -60 -12 -14 -6 -27 -9 -30 -6 -9 9 6 38 19 38 18 0
59 41 49 50 -4 4 -28 12 -53 18 -36 9 -48 8 -61 -3 -8 -8 -31 -15 -50 -15 -19
-1 -52 -9 -74 -20 -51 -25 -67 -25 -88 0 -15 18 -14 24 6 21 4 -1 20 5 35 13
15 7 46 17 69 21 23 4 53 15 67 26 13 10 31 19 39 19 18 0 47 32 47 53 0 10 8
17 19 17 10 0 24 6 30 13 6 8 23 12 38 10 21 -4 38 4 68 31 22 19 34 35 28 36
-19 0 -16 20 2 20 8 0 24 -5 34 -12 15 -9 32 -9 74 1 76 17 82 28 43 73 -30
34 -34 36 -52 23 -28 -21 -34 -18 -28 15 8 40 -10 39 -60 -2 l-39 -32 7 29 c4
17 14 35 23 42 24 19 8 30 -62 42 -45 8 -71 8 -84 1 -11 -5 -30 -10 -43 -10
-13 0 -28 -4 -34 -8 -5 -5 -21 -13 -35 -19 -25 -11 -26 -10 -21 15 3 15 11 31
19 35 11 7 11 12 2 23 -9 11 -8 15 5 20 24 9 77 64 71 74 -8 13 -88 20 -128
11 -21 -5 -36 -6 -35 -3 2 4 14 29 27 55 21 45 24 47 40 33 10 -9 22 -12 30
-7 11 7 9 10 -8 16 -25 8 -19 25 10 25 10 0 19 4 19 8 0 4 16 6 35 4 27 -3 35
-1 35 12 0 9 -6 15 -12 13 -7 -1 -14 8 -16 21 -2 12 -9 22 -17 22 -8 0 -11 7
-8 20 3 11 0 20 -6 20 -6 0 -11 5 -11 10 0 6 11 10 25 10 14 0 25 -4 25 -10 0
-5 7 -10 15 -10 8 0 15 -6 15 -14 0 -8 7 -17 16 -20 12 -5 15 1 12 32 -2 30
-7 38 -26 40 -12 2 -20 8 -17 13 4 5 2 9 -3 9 -13 0 -10 53 3 63 6 5 4 7 -5 6
-38 -4 -42 0 -35 41 4 26 3 40 -4 40 -6 0 -11 -11 -11 -25 0 -16 -6 -25 -16
-25 -12 0 -15 -6 -11 -21 8 -31 -2 -48 -24 -42 -22 6 -26 23 -5 23 16 0 32 83
17 88 -5 2 -7 10 -4 18 3 9 0 26 -7 40 -12 21 -11 26 5 38 17 12 17 13 1 19
-10 4 -14 12 -11 17 10 17 -14 39 -35 33 -11 -3 -20 -1 -20 5 0 6 -7 18 -16
27 -22 22 -13 28 22 15 32 -12 76 3 68 24 -2 6 3 12 13 12 10 1 25 3 33 5 8 2
15 -3 15 -11 0 -8 4 -21 9 -28 5 -9 1 -15 -13 -19 -23 -6 -28 -19 -10 -25 18
-6 22 -85 4 -92 -19 -7 -20 -46 -1 -46 8 0 17 6 19 13 3 7 6 5 6 -5 1 -10 8
-18 17 -18 14 0 14 3 4 15 -10 12 -10 19 -2 27 8 8 13 7 18 -5 3 -9 15 -17 25
-17 24 0 24 -22 0 -44 -13 -11 -27 -15 -40 -11 -12 3 -21 2 -21 -3 0 -13 44
-24 64 -16 15 6 20 17 17 37 0 4 6 7 14 7 8 0 15 7 15 15 0 8 -6 15 -12 15 -7
0 -18 11 -25 25 -9 21 -9 25 4 25 8 0 11 -4 8 -10 -3 -5 1 -10 10 -10 8 0 18
7 21 15 8 21 -15 75 -32 75 -16 0 -17 9 -4 30 8 13 13 13 31 2 29 -18 40 -4
12 15 -13 9 -23 22 -23 30 0 9 -6 13 -14 10 -8 -3 -26 3 -40 14 l-26 20 0 -23
c-1 -21 -2 -22 -14 -5 -7 9 -18 17 -25 17 -6 0 -11 7 -11 16 0 8 -6 21 -12 27
-19 18 -68 38 -78 32 -4 -3 -10 4 -13 15 -3 11 -19 28 -35 37 -26 15 -28 19
-14 29 18 13 68 -11 75 -36 5 -18 46 -24 64 -8 7 5 10 15 6 22 -11 16 -10 30
2 38 16 12 25 9 25 -8 0 -14 3 -14 15 -4 13 11 14 10 9 -3 -4 -11 1 -16 17
-19 13 -2 23 -11 25 -22 4 -29 28 -39 36 -15 4 11 12 18 17 14 6 -3 8 -12 4
-20 -7 -20 7 -19 21 1 11 14 13 14 25 0 11 -14 11 -16 -4 -16 -36 0 -4 -13 42
-17 26 -2 53 -9 61 -15 10 -9 15 -9 21 1 7 10 13 10 29 2 11 -6 34 -11 51 -11
17 0 31 -4 31 -10 0 -5 -4 -10 -10 -10 -17 0 -11 -18 8 -23 15 -4 14 -6 -4
-12 -21 -6 -25 -29 -10 -53 4 -8 15 -11 23 -8 9 4 23 1 31 -6 10 -8 13 -9 9
-1 -4 6 -1 14 5 16 7 3 1 6 -14 6 -26 1 -42 21 -17 21 5 0 7 5 4 11 -4 6 -7
26 -7 45 0 27 -4 34 -19 34 -10 0 -19 7 -19 15 0 10 -11 15 -35 15 -19 0 -35
5 -35 10 0 10 25 15 45 10 6 -2 21 -2 34 -1 17 1 22 -3 17 -15 -5 -13 -1 -15
20 -10 l27 7 -6 -60 c-5 -57 -4 -61 16 -61 12 0 28 -4 36 -9 18 -12 7 -41 -16
-41 -17 -1 -17 -1 0 -14 14 -11 15 -15 5 -19 -7 -3 -8 -6 -2 -6 6 -1 24 11 39
25 28 26 28 26 11 55 -19 32 -12 37 21 14 12 -9 19 -22 17 -32 -2 -10 0 -25 6
-33 9 -13 11 -13 20 0 9 13 11 13 20 0 8 -13 10 -12 10 3 0 9 -7 17 -15 17 -8
0 -15 3 -16 8 0 4 -2 18 -4 32 -3 33 4 44 20 30 9 -8 17 -7 29 5 20 21 65 10
76 -19 l9 -21 0 22 c1 25 37 41 54 24 9 -9 8 -14 -2 -20 -9 -6 -10 -10 -2 -16
7 -3 9 -15 6 -26 -4 -12 -2 -19 6 -19 7 0 21 -8 31 -17 17 -15 20 -15 28 -3
15 23 12 41 -8 47 -10 2 -23 13 -29 23 -10 15 -9 17 8 13 11 -3 21 -9 24 -13
2 -3 18 -5 35 -2 25 3 28 7 19 18 -6 8 -20 14 -31 14 -15 0 -18 5 -13 20 7 23
-10 26 -63 11 -17 -5 -32 -6 -32 -1 0 5 14 11 30 15 17 4 30 11 30 16 0 5 12
8 28 7 27 -3 29 2 17 35 -5 13 -3 16 8 11 10 -3 20 2 27 15 6 12 17 21 25 21
8 0 15 5 15 10 0 6 7 10 15 10 8 0 15 -9 15 -19 0 -10 7 -22 16 -25 8 -3 12
-11 9 -17 -4 -6 -14 -8 -22 -4 -9 3 -27 -2 -40 -10 -13 -9 -28 -13 -33 -10 -6
3 -10 1 -10 -6 0 -7 11 -9 33 -6 24 4 40 -1 65 -20 22 -16 39 -22 50 -17 16 6
16 7 1 11 -10 2 -19 17 -21 34 -4 25 -2 28 14 23 11 -3 18 0 19 8 0 7 5 2 11
-12 l11 -25 5 23 c4 28 -14 53 -34 45 -8 -3 -14 -2 -14 1 0 4 21 16 46 28 43
18 48 19 56 4 12 -21 40 -21 36 1 -4 19 -57 40 -67 26 -3 -5 -33 -9 -66 -10
l-60 0 40 18 c22 10 46 18 53 18 7 1 12 14 12 31 0 19 5 30 14 30 8 0 13 -7
12 -16 -2 -24 32 -43 43 -25 8 12 12 12 26 -3 10 -9 15 -20 12 -23 -4 -3 -1
-15 5 -27 7 -11 13 -27 14 -34 6 -36 15 -44 39 -38 25 6 27 5 29 -38 1 -11 7
-21 14 -23 8 -3 10 1 5 13 -7 18 -9 18 65 0 16 -3 22 -1 19 7 -2 7 -22 13 -45
15 -42 3 -47 9 -43 54 1 10 -3 26 -8 37 -8 14 -8 21 2 24 6 3 -3 6 -22 6 -27
1 -31 4 -22 15 9 11 8 15 -6 21 -10 5 -21 8 -25 7 -3 -1 -12 5 -18 13 -7 8
-18 15 -25 15 -7 0 -18 7 -25 15 -9 11 -16 13 -24 5 -14 -14 -26 -12 -20 4 7
19 -14 30 -31 16 -11 -10 -15 -7 -21 14 -3 14 -12 26 -19 26 -7 0 -41 16 -75
35 -70 40 -76 41 -84 20 -3 -8 -12 -15 -21 -15 -20 0 -19 10 1 25 15 11 15 14
-7 29 -56 40 -132 86 -142 86 -7 0 -21 7 -31 15 -10 8 -22 12 -26 10 -5 -3
-13 8 -18 25 -7 18 -7 32 -1 35 5 4 9 -1 9 -10 0 -9 4 -14 8 -11 4 2 27 -9 51
-25 24 -16 48 -29 52 -29 5 0 37 -17 71 -38 35 -21 86 -49 113 -62 28 -14 66
-36 85 -51 19 -14 48 -29 65 -33 16 -4 36 -13 44 -19 20 -17 83 -37 94 -30 6
4 7 1 3 -6 -5 -8 0 -14 13 -18 12 -3 21 -9 21 -13 0 -4 9 -10 20 -13 13 -3 20
0 20 9 0 8 -8 15 -17 15 -10 1 -4 5 12 8 35 9 51 3 36 -12 -20 -20 -11 -35 35
-61 42 -23 48 -24 68 -11 12 8 26 12 30 8 4 -5 14 1 22 11 13 18 14 18 23 -5
12 -32 -2 -45 -32 -32 -14 7 -30 8 -38 3 -10 -7 -8 -11 11 -18 58 -22 68 -23
74 -7 4 12 10 13 23 6 10 -5 32 -10 48 -12 17 -2 35 -6 40 -10 6 -3 24 -5 40
-4 43 3 45 4 45 16 0 6 -6 9 -14 6 -17 -7 -36 11 -29 28 2 7 -5 16 -16 20 -23
7 -28 30 -8 37 18 7 37 -2 37 -18 0 -15 16 -19 24 -6 7 12 -16 36 -48 50 -19
8 -31 9 -35 3 -4 -6 -12 -7 -21 0 -13 8 -13 10 -1 18 12 8 8 11 -15 16 -16 3
-36 10 -44 15 -8 6 -30 16 -48 24 -18 8 -35 22 -38 29 -3 8 -24 18 -47 22 -33
7 -37 9 -18 13 19 3 21 6 10 13 -12 7 -11 9 2 9 9 0 22 -7 29 -15 15 -18 37
-19 43 -2 9 21 25 -11 19 -39 -5 -27 12 -33 22 -8 5 13 9 14 21 4 8 -7 21 -10
28 -7 8 3 21 -3 30 -14 9 -10 23 -19 32 -19 8 0 19 -9 25 -20 9 -17 41 -19 38
-2 0 4 0 14 1 22 1 12 5 11 16 -4 11 -14 18 -16 28 -8 23 19 38 0 28 -36 -8
-28 -7 -32 9 -32 10 0 22 -5 26 -11 5 -8 10 -6 16 5 7 13 13 14 31 5 31 -17
87 -28 87 -18 0 5 5 9 10 9 6 0 10 -9 10 -20 0 -11 5 -20 10 -20 6 0 10 9 10
20 0 13 7 20 20 20 14 0 18 -5 14 -17 -3 -10 2 -7 10 7 21 35 20 38 -16 42
-22 2 -34 9 -36 21 -3 15 0 18 16 13 11 -4 35 -9 54 -11 57 -6 82 -16 66 -27
-8 -6 2 -8 30 -4 29 4 41 3 37 -4 -3 -6 3 -10 15 -10 17 0 20 -4 15 -21 -6
-17 -3 -20 12 -17 10 2 17 9 16 15 -2 12 64 31 116 32 19 1 37 4 40 8 4 3 -32
4 -79 1 -47 -2 -77 -2 -67 0 9 2 17 8 17 13 0 5 21 9 46 9 32 0 44 4 42 13 -7
19 -83 21 -102 2 -20 -20 -42 -10 -25 12 10 12 10 16 -1 23 -8 5 -11 12 -7 16
3 4 13 2 20 -4 8 -7 17 -9 20 -5 4 3 7 1 7 -5 0 -7 16 -12 40 -12 38 0 40 2
40 30 0 17 5 30 11 30 6 0 9 -6 6 -14 -7 -17 41 -31 73 -21 11 4 20 2 20 -4 0
-6 5 -11 10 -11 6 0 10 9 10 20 0 11 -7 20 -15 20 -9 0 -18 7 -22 16 -4 12
-14 14 -37 10 l-31 -6 0 50 c0 27 3 50 8 50 4 0 7 -9 7 -19 0 -11 7 -26 15
-34 8 -8 13 -16 12 -18 -1 -2 5 5 14 15 10 11 15 26 12 34 -4 10 1 13 18 10
18 -2 23 -8 21 -23 -2 -11 -10 -23 -17 -27 -18 -11 -7 -49 13 -46 9 2 17 -3
18 -9 1 -7 2 -18 3 -24 0 -5 4 -8 9 -5 4 2 12 -6 19 -20 9 -20 8 -24 -8 -29
-10 -4 -19 -13 -19 -20 0 -8 -8 -19 -17 -24 -16 -9 -16 -10 5 -11 12 0 22 5
22 11 0 5 4 8 9 5 5 -3 14 1 21 9 7 8 19 15 27 15 10 0 14 9 13 27 -1 16 -2
45 -1 66 l1 38 48 -3 c34 -2 47 -7 47 -18 0 -11 -10 -14 -44 -12 l-44 3 24
-20 c19 -16 21 -20 7 -21 -9 0 -20 -5 -24 -11 -7 -12 20 -8 60 7 21 8 22 -22
1 -42 -19 -19 -19 -35 -1 -59 12 -17 14 -13 20 38 4 31 12 57 17 57 5 0 9 -5
9 -11 0 -6 9 -9 20 -6 25 7 28 -21 3 -30 -23 -9 -42 -34 -43 -55 0 -24 23 -23
45 2 10 11 21 17 26 15 4 -3 6 15 4 39 -2 30 1 49 11 57 12 9 14 6 14 -21 0
-21 4 -30 13 -28 6 3 12 11 12 19 0 8 4 17 9 20 16 12 -63 109 -89 109 -20 0
-19 16 1 24 19 7 61 -19 67 -42 4 -15 5 -15 6 1 0 9 8 17 16 17 18 0 19 -12 3
-28 -9 -9 -9 -15 0 -24 7 -7 12 -20 12 -30 0 -10 4 -18 9 -18 5 0 16 -3 25 -6
12 -4 16 0 16 15 0 15 6 21 23 21 13 0 27 4 32 9 16 14 63 22 70 12 3 -6 -2
-14 -11 -19 -24 -13 -7 -35 23 -29 18 3 23 1 19 -9 -4 -11 5 -14 35 -14 26 0
38 4 34 11 -4 6 -13 8 -21 5 -9 -4 -14 2 -14 17 0 15 11 28 35 41 35 19 39 42
5 31 -10 -3 -21 -1 -25 5 -4 7 2 14 14 17 23 6 29 39 8 46 -6 2 -24 -4 -39
-15 -26 -18 -47 -10 -33 12 8 12 -5 13 -24 1 -9 -6 -12 -21 -9 -45 2 -20 0
-36 -4 -36 -4 0 -8 11 -8 25 0 16 -6 25 -15 25 -20 0 -19 17 3 30 12 8 14 13
4 17 -22 9 -89 77 -67 69 11 -5 28 -10 37 -13 10 -3 20 -14 24 -25 4 -15 8
-17 14 -8 6 10 16 10 50 -4 23 -9 45 -14 49 -11 5 2 22 -2 38 -10 31 -15 93
-11 93 6 0 11 -100 62 -108 55 -3 -3 -12 0 -20 6 -17 15 -80 38 -103 38 -22 0
-79 30 -79 41 0 21 35 21 92 1 33 -12 64 -19 69 -16 5 3 17 -2 26 -11 9 -10
26 -15 40 -12 12 2 23 1 23 -2 0 -12 58 -31 76 -25 14 4 16 3 5 -4 -10 -7 5
-15 55 -32 38 -12 78 -25 89 -30 11 -5 31 -11 45 -14 14 -2 57 -15 95 -26 101
-32 125 -35 125 -18 0 8 -8 15 -17 15 -59 -1 -87 4 -74 12 9 6 10 11 2 15 -6
4 -8 12 -5 18 4 6 2 8 -4 4 -16 -10 -24 10 -8 23 16 13 86 10 86 -3 0 -6 5 -5
12 2 7 7 17 8 28 2 14 -7 19 -5 23 10 4 17 1 19 -20 14 -22 -6 -24 -4 -21 22
l3 29 65 -4 c56 -3 63 -1 52 12 -17 20 0 31 51 33 20 1 46 9 56 18 23 21 45
21 37 0 -3 -9 -6 -18 -6 -20 0 -2 -9 -4 -20 -4 -13 0 -20 -7 -20 -20 0 -15 7
-20 28 -20 15 0 50 -3 79 -6 46 -5 52 -4 58 16 6 20 8 20 20 4 11 -16 55 -28
55 -15 0 8 50 31 67 31 7 0 13 -4 13 -10 0 -5 -4 -10 -10 -10 -5 0 -10 -9 -10
-20 0 -17 -3 -19 -19 -8 -15 9 -23 9 -35 -1 -17 -14 -22 -32 -8 -29 4 0 15 -2
24 -6 25 -11 63 -3 64 14 1 26 15 50 30 50 8 0 14 5 14 11 0 5 5 7 10 4 6 -4
9 -12 8 -18 -1 -7 7 -33 19 -58 19 -43 24 -47 68 -53 26 -4 49 -5 53 -2 3 3
-7 6 -21 6 -26 0 -27 2 -27 55 0 42 -3 55 -15 55 -8 0 -15 5 -15 10 0 6 -8 10
-17 10 -17 1 -17 1 0 11 9 5 17 22 17 36 0 25 0 26 -20 8 -15 -14 -20 -15 -20
-4 0 9 -3 10 -8 3 -11 -16 -82 -15 -82 2 0 10 7 13 25 8 16 -4 37 1 61 15 39
24 67 22 58 -4 -7 -17 21 -22 31 -5 11 17 43 11 59 -12 9 -12 16 -17 16 -11 0
6 9 15 20 18 11 4 20 15 20 26 0 16 4 19 23 13 31 -9 34 -14 17 -24 -11 -7 -3
-10 28 -10 23 0 42 -4 42 -10 0 -5 -19 -10 -42 -10 -42 0 -42 0 -20 -16 18
-13 21 -19 11 -30 -6 -8 -10 -15 -8 -17 48 -28 49 -28 49 -7 0 11 3 20 8 20 4
0 24 15 45 34 31 27 38 39 33 58 -3 13 -3 17 0 11 4 -9 11 -10 25 -2 29 15 38
4 32 -41 -7 -48 1 -72 21 -64 8 3 12 12 9 20 -3 7 2 17 11 20 13 5 14 9 5 20
-6 8 -15 11 -20 8 -5 -3 -9 0 -9 5 0 6 7 11 16 11 12 0 15 6 10 25 -7 29 4 32
39 9 29 -19 32 -34 8 -35 -15 0 -15 -2 2 -9 32 -14 35 -12 35 20 0 36 13 39
28 5 10 -22 8 -27 -18 -45 -17 -12 -30 -17 -30 -11 0 6 -9 11 -20 11 -26 0
-26 -17 0 -25 20 -6 26 -20 13 -28 -5 -2 -1 -2 7 1 8 2 29 8 45 11 23 6 29 12
28 29 -2 15 2 20 12 16 8 -4 15 -17 15 -30 0 -33 26 -31 38 4 7 17 11 21 11
10 1 -11 9 -18 21 -18 11 0 20 -4 20 -10 0 -5 5 -10 10 -10 15 0 12 37 -4 53
-9 8 -12 24 -9 36 5 22 23 30 23 10 0 -6 6 -17 14 -25 8 -7 16 -19 19 -26 2
-7 8 -9 13 -5 5 4 3 11 -3 15 -6 4 -13 23 -17 42 -3 19 -3 29 0 23 9 -19 26
-16 22 4 -2 13 -14 18 -48 19 -25 0 -56 2 -70 3 -24 3 -24 3 5 12 17 5 47 7
67 3 29 -4 39 -2 44 10 7 18 64 49 64 35 0 -5 7 -9 15 -9 8 0 15 -4 15 -10 0
-5 -11 -10 -24 -10 -14 0 -28 -5 -32 -11 -9 -14 13 -28 36 -22 9 3 33 0 53 -5
28 -8 37 -7 41 4 11 28 26 13 26 -25 0 -23 5 -41 13 -44 10 -4 12 6 7 44 -4
27 -3 49 2 49 4 0 8 -13 8 -29 0 -28 1 -29 32 -20 26 7 35 5 50 -11 10 -11 29
-20 41 -20 20 1 20 2 -6 16 -15 8 -27 21 -27 29 0 8 -9 15 -19 15 -14 0 -18 5
-14 19 3 10 0 22 -6 25 -21 13 -11 27 17 23 16 -2 26 -10 25 -18 -1 -8 16 -27
39 -42 33 -23 45 -27 62 -19 20 10 19 11 -6 11 -44 1 -32 21 12 21 22 0 40 4
40 8 0 4 11 9 25 10 16 1 25 -3 25 -13 0 -8 7 -15 16 -15 10 0 14 6 11 14 -4
10 -1 13 9 9 7 -3 14 0 14 6 0 6 -4 11 -10 11 -5 0 -10 9 -10 20 0 11 4 20 10
20 5 0 9 5 7 11 -1 6 9 13 23 14 36 4 50 -9 17 -15 l-29 -5 28 -24 27 -23 -6
22 c-4 16 -1 24 14 27 60 16 -13 34 -203 49 -55 4 -68 2 -68 -10 0 -8 6 -17
13 -19 9 -4 8 -8 -3 -16 -17 -12 -35 -9 -35 6 0 6 -3 15 -7 19 -4 4 -3 13 2
19 8 9 4 14 -15 17 -17 4 -25 1 -25 -8 0 -8 -4 -14 -10 -14 -5 0 -10 7 -10 15
0 9 -9 15 -23 15 -13 0 -46 6 -73 14 -27 8 -71 17 -99 20 -27 2 -76 10 -107
15 -32 6 -82 15 -110 21 -29 5 -98 18 -153 30 -55 11 -115 23 -132 27 -18 3
-33 12 -33 19 0 16 7 16 70 4 54 -10 251 -48 300 -58 19 -4 61 -7 93 -7 31 0
57 -3 57 -6 0 -9 79 -23 108 -20 13 1 30 -3 37 -9 7 -6 42 -12 77 -13 34 -2
69 -6 76 -11 7 -4 15 -1 19 9 3 10 0 21 -8 26 -8 5 -9 9 -4 9 18 0 36 -17 33
-31 -2 -10 13 -16 52 -21 30 -4 75 -10 100 -14 41 -6 43 -5 31 10 -21 25 -4
32 22 9 13 -13 42 -23 76 -26 29 -4 58 -10 65 -15 6 -5 28 -7 49 -5 36 5 47
16 27 28 -22 14 -8 25 31 25 25 0 38 4 34 10 -4 6 -11 8 -16 5 -5 -4 -9 -1 -9
4 0 6 8 11 18 11 26 0 41 13 45 38 2 12 6 25 10 28 13 13 7 24 -13 24 -13 0
-18 5 -14 15 4 8 12 15 19 15 7 0 15 5 17 12 3 7 12 9 24 4 17 -7 17 -8 3 -17
-11 -5 -19 -29 -24 -65 -11 -87 -31 -117 -77 -110 -20 3 -25 0 -21 -10 6 -16
63 -19 63 -4 0 6 7 10 16 10 8 0 13 -4 9 -9 -3 -5 -1 -12 5 -16 5 -3 10 1 10
9 0 9 5 16 10 16 6 0 10 -7 10 -15 0 -9 9 -15 25 -15 14 0 25 4 25 9 0 5 14
11 31 15 17 3 28 10 24 16 -4 6 10 8 39 4 33 -5 46 -3 46 6 0 7 7 10 15 7 9
-4 21 5 32 23 18 31 43 40 43 16 0 -7 -7 -19 -15 -26 -19 -16 -19 -50 0 -50 9
0 12 6 8 17 -5 13 -2 15 12 10 11 -5 22 -1 31 10 12 17 14 17 29 -5 l16 -22
19 22 c16 21 17 25 3 51 -10 20 -11 32 -4 41 6 7 12 27 14 44 5 42 10 46 56
44 22 -2 42 2 46 8 9 14 25 2 19 -14 -3 -8 -1 -17 5 -21 7 -4 11 7 11 29 0 38
14 50 18 16 7 -64 3 -60 40 -44 19 8 45 14 59 14 14 0 21 4 18 10 -3 6 -22 10
-41 10 -19 0 -34 5 -34 10 0 6 23 10 50 10 41 0 50 -3 50 -17 0 -13 9 -19 30
-20 20 -1 30 2 30 12 0 21 -19 28 -35 15 -12 -10 -15 -9 -15 3 0 8 -9 17 -20
20 -11 3 -20 10 -20 16 0 16 41 13 60 -4 9 -8 41 -17 71 -20 69 -6 201 6 174
15 -11 4 -21 12 -21 19 -1 6 -3 14 -4 19 -4 10 -7 25 -9 38 0 7 -10 14 -20 17
-14 3 -18 11 -14 26 8 30 20 35 39 17 10 -11 26 -14 46 -11 32 6 62 -10 52
-27 -4 -6 -1 -14 6 -18 9 -6 7 -10 -9 -15 -11 -3 -21 -10 -21 -15 0 -4 -10
-11 -22 -15 l-23 -8 23 -4 c12 -2 22 -9 22 -14 0 -18 46 -9 65 13 12 15 20 18
23 10 6 -20 22 -14 22 8 0 11 7 23 15 27 25 9 30 -5 11 -26 -13 -14 -15 -24
-9 -36 9 -15 11 -15 23 -1 7 9 13 27 13 41 0 25 12 34 19 14 3 -8 19 -8 59 0
31 7 64 9 74 5 12 -5 23 0 36 17 19 24 19 24 37 4 9 -11 16 -18 15 -16 -2 2 2
10 9 18 19 23 -7 37 -59 34 -25 -1 -57 -10 -69 -18 -19 -12 -33 -13 -71 -5
-73 16 -133 21 -133 11 0 -5 -5 -9 -11 -9 -6 0 -8 7 -5 17 4 9 1 20 -5 24 -21
13 57 22 80 10 14 -8 21 -8 21 -1 0 12 50 13 69 1 18 -12 41 -3 35 13 -5 12
80 27 156 28 14 0 33 4 42 9 12 6 18 6 18 -1 0 -19 48 -11 55 10 8 26 35 27
28 1 -4 -15 1 -20 19 -23 17 -2 24 -10 26 -30 3 -22 -2 -29 -22 -34 -35 -9
-33 -24 4 -24 19 0 33 7 40 21 12 21 5 75 -11 95 -6 8 -4 14 6 18 8 3 15 2 15
-3 0 -5 8 -11 18 -15 9 -3 23 -9 30 -12 7 -3 12 1 12 10 0 9 -7 16 -15 16 -8
0 -15 5 -15 10 0 15 19 12 36 -5 17 -16 84 -21 84 -6 0 10 40 8 58 -3 7 -4 12
-2 12 4 0 6 5 8 10 5 6 -3 10 1 10 9 0 11 9 16 29 16 17 0 33 4 36 10 3 6 -3
10 -14 10 -19 0 -40 18 -24 22 41 7 63 4 61 -11 -4 -24 26 -19 37 6 13 30 39
29 53 -2 8 -17 20 -25 36 -25 14 0 26 -6 29 -12 2 -7 3 -5 2 5 -2 12 4 17 22
17 18 0 24 4 19 15 -3 9 0 15 9 15 8 0 15 -4 15 -9 0 -4 11 -6 25 -4 22 5 23
7 9 20 -11 11 -12 19 -5 26 15 15 14 27 -4 27 -8 0 -15 -6 -15 -12 -1 -7 -7
-2 -15 12 l-14 25 -1 -34 c0 -26 -3 -32 -11 -24 -8 8 -20 8 -36 2 -31 -12 -43
-4 -43 27 0 18 5 24 21 24 11 0 17 5 14 10 -11 18 5 31 20 16 8 -7 25 -11 39
-9 14 3 26 1 26 -5 0 -6 26 -8 65 -6 37 2 63 -1 60 -6 -3 -5 -1 -11 4 -15 6
-3 7 -15 1 -29 -7 -21 -6 -22 16 -18 28 5 27 3 15 34 -7 20 -6 24 10 25 10 1
19 -3 19 -9 0 -7 5 -6 15 2 8 7 22 9 32 6 15 -6 15 -4 -2 14 -14 15 -16 23 -7
32 9 9 16 7 30 -5 26 -24 42 -21 42 8 0 19 5 25 16 23 10 -2 19 3 22 11 3 10
0 12 -12 8 -10 -4 -16 -1 -16 8 0 24 -57 19 -65 -5 -4 -13 -15 -20 -33 -20
-15 0 -34 -4 -42 -9 -8 -6 -18 -7 -23 -4 -5 3 -3 9 4 14 10 6 10 9 2 9 -6 0
-15 -5 -18 -10 -3 -6 -15 -10 -26 -10 -11 0 -17 4 -14 10 3 6 -5 10 -19 10
-27 0 -44 -16 -24 -23 7 -2 9 -8 5 -13 -5 -5 -13 -1 -18 9 -8 13 -15 15 -28 7
-10 -5 -54 -11 -98 -13 -84 -4 -103 -10 -103 -33 0 -8 -10 -14 -22 -14 -21 0
-21 1 -3 13 17 13 17 14 -4 20 -11 3 -21 2 -21 -1 0 -4 -15 -7 -34 -8 -33 0
-66 -22 -66 -43 0 -6 -11 -11 -25 -11 -13 0 -29 -8 -35 -17 -10 -16 -11 -16
-7 3 2 12 0 29 -5 38 -6 10 -5 16 2 16 5 0 10 7 10 15 0 8 10 17 23 19 48 10
185 28 232 30 28 2 57 5 65 8 24 10 121 29 169 34 25 3 50 9 57 15 7 5 32 12
56 14 116 11 156 18 185 31 17 8 39 14 50 14 10 0 30 6 44 14 16 8 32 10 40 5
7 -4 18 -4 24 1 6 5 35 12 65 15 29 3 61 12 71 21 26 24 64 15 64 -16 0 -20
-5 -25 -22 -23 -24 3 -27 -4 -17 -31 8 -21 34 -21 34 0 0 28 35 11 38 -19 2
-16 10 -31 18 -34 8 -3 14 -11 14 -19 0 -8 -6 -11 -15 -8 -10 4 -15 0 -15 -15
0 -12 5 -21 10 -21 6 0 10 4 10 10 0 5 7 7 15 4 9 -4 15 0 15 8 0 21 36 51 50
43 8 -5 6 -13 -7 -27 -17 -19 -17 -20 12 -16 26 3 30 6 27 31 -3 25 0 28 17
22 11 -3 28 -8 38 -10 10 -2 25 -6 34 -10 10 -3 20 -2 24 4 3 6 15 11 26 11
10 0 19 5 19 11 0 8 -14 10 -45 6 -25 -4 -47 -2 -50 3 -4 6 10 11 32 11 29 2
32 3 11 6 -18 3 -25 9 -21 19 3 9 -2 14 -16 14 -12 0 -21 6 -21 15 0 11 11 15
40 15 38 0 40 2 40 31 0 17 4 28 10 24 5 -3 7 -12 3 -20 -3 -9 1 -15 10 -15 8
0 17 7 21 15 6 17 51 20 61 5 4 -6 11 -8 16 -5 15 10 10 22 -11 28 -29 7 -25
27 6 27 17 0 28 -6 31 -19 3 -13 11 -17 26 -14 20 5 19 3 -5 -20 -29 -26 -36
-39 -17 -35 6 2 13 -2 16 -8 2 -7 -7 -11 -22 -11 -14 0 -25 5 -25 13 0 8 -5
14 -11 14 -6 0 -8 -9 -4 -20 3 -11 2 -20 -4 -20 -5 0 -9 -9 -8 -20 1 -11 7
-20 14 -20 7 0 15 -16 19 -36 6 -30 8 -34 16 -19 6 9 8 28 5 41 -2 13 -1 24 4
24 4 0 14 3 23 6 11 4 16 1 16 -10 0 -9 -7 -19 -15 -22 -20 -8 -9 -24 16 -24
28 0 50 25 42 47 -4 13 0 11 16 -7 19 -21 22 -22 16 -5 -12 36 -10 39 20 46
l30 7 -33 1 c-28 1 -32 4 -28 19 5 13 -1 22 -19 30 -33 15 -32 30 5 46 17 7
28 15 25 18 -3 3 7 8 23 11 18 4 31 14 35 26 8 32 24 25 23 -9 -1 -19 -5 -28
-13 -26 -7 3 -15 1 -18 -4 -4 -6 11 -10 34 -10 50 0 91 -15 91 -34 0 -8 10
-22 22 -31 20 -13 21 -18 10 -35 -11 -17 -10 -20 7 -20 15 0 19 6 17 23 -1 13
-6 29 -11 36 -5 9 -2 19 10 28 17 12 16 13 -13 13 -28 0 -32 3 -32 26 0 21 -4
25 -20 21 -14 -3 -24 1 -31 15 -13 25 -9 29 35 33 39 3 50 -13 15 -22 -19 -5
-18 -7 11 -19 17 -8 29 -18 26 -23 -10 -16 14 -24 30 -10 21 18 42 -4 24 -26
-15 -18 -4 -19 39 -4 17 6 31 17 31 25 0 8 9 14 19 14 26 0 51 10 51 21 0 5
-7 9 -16 9 -8 0 -12 5 -8 11 4 7 24 9 56 5 27 -4 53 -4 59 0 17 10 -28 35 -53
29 -13 -3 -35 -1 -48 5 -24 10 -24 10 4 5 20 -4 32 -1 41 12 11 15 16 16 38 4
14 -7 31 -10 37 -6 16 10 32 -16 19 -31 -7 -8 -7 -14 0 -18 6 -4 8 -13 4 -21
-4 -12 3 -15 31 -15 20 0 36 5 36 10 0 6 -7 10 -16 10 -21 0 -12 22 14 36 12
6 19 14 15 18 -4 4 3 9 15 13 13 3 22 13 22 25 0 17 5 20 30 16 23 -3 30 -1
26 9 -7 18 25 34 47 21 10 -5 23 -7 30 -4 7 2 4 5 -5 5 -22 1 -24 17 -4 24 14
6 75 0 103 -8 16 -5 5 -35 -12 -35 -7 0 -16 6 -18 13 -3 6 -6 -3 -6 -20 -1
-18 2 -33 7 -33 15 0 59 36 55 45 -2 6 5 20 15 30 13 15 17 34 16 78 -1 31 2
57 7 57 5 0 9 -9 9 -20 0 -25 9 -25 26 -2 12 15 15 15 24 2 9 -13 12 -13 24 3
20 26 36 21 36 -13 0 -30 -13 -40 -26 -18 -5 7 -10 3 -16 -13 -7 -17 -11 -20
-17 -10 -6 9 -11 10 -15 2 -8 -12 -6 -13 48 -16 21 -1 41 -8 45 -14 6 -9 11
-8 21 4 7 8 8 15 2 15 -5 0 -12 9 -15 21 -4 15 1 23 21 31 26 11 27 11 5 17
-18 5 -20 9 -12 21 8 11 12 12 16 3 2 -7 11 -13 18 -13 17 0 28 -31 15 -44
-17 -17 -11 -28 13 -24 13 2 21 9 18 18 -9 39 -6 45 27 44 25 -2 32 2 32 17 0
23 16 25 28 3 7 -13 10 -10 15 16 8 37 27 31 27 -9 0 -25 3 -27 30 -23 30 4
43 22 16 22 -8 0 -17 4 -20 9 -8 13 4 42 14 36 5 -3 11 -1 15 5 11 18 22 10
18 -14 -4 -19 4 -28 51 -55 43 -24 61 -29 75 -22 10 6 41 8 70 6 55 -4 66 10
23 30 -31 14 -27 22 11 22 18 0 37 -7 44 -16 15 -21 30 -5 16 18 -6 10 -8 23
-3 30 11 19 44 9 47 -14 2 -11 0 -14 -3 -7 -9 20 -27 14 -21 -8 3 -12 -2 -28
-11 -37 -16 -16 -16 -16 3 -9 40 16 55 18 55 7 0 -6 8 -11 18 -11 13 0 18 7
18 21 -1 18 8 24 44 33 56 14 50 31 -9 27 -40 -2 -43 -1 -28 13 8 9 29 16 46
16 17 0 34 7 39 16 8 14 10 12 16 -10 3 -14 11 -26 16 -26 6 0 15 -12 20 -26
7 -17 14 -23 22 -17 7 4 18 8 23 8 6 0 9 8 7 18 -2 10 4 17 13 17 12 0 15 -6
10 -20 -5 -16 -2 -20 14 -20 23 0 26 -12 11 -41 -11 -20 -50 -27 -50 -9 0 6
-4 10 -10 10 -5 0 -10 -7 -10 -15 0 -8 -9 -15 -20 -15 -13 0 -20 -7 -20 -19 0
-11 -8 -22 -17 -24 -11 -3 -7 -5 10 -6 16 -1 27 4 27 12 0 8 18 13 55 15 35 1
63 9 75 19 26 23 25 33 -2 33 -21 0 -21 0 -3 14 16 11 17 17 7 29 -10 11 -9
17 3 27 13 10 20 11 39 1 12 -7 31 -11 42 -9 14 2 19 -3 19 -19 1 -31 19 -30
23 2 5 38 22 30 22 -10 0 -24 5 -35 15 -35 8 0 15 -4 15 -10 0 -5 6 -10 14
-10 19 0 27 98 8 105 -8 3 -15 5 -16 5 -1 0 0 -18 2 -40 3 -25 0 -40 -7 -40
-6 0 -11 15 -11 34 0 28 -4 35 -22 38 -18 2 -23 10 -23 33 0 16 -5 30 -12 30
-6 0 -15 3 -19 7 -4 5 -1 8 7 8 8 0 24 3 35 6 17 4 23 0 28 -21 7 -26 9 -27
53 -20 33 5 43 3 38 -5 -4 -6 -13 -9 -21 -6 -8 3 -14 -1 -14 -8 0 -7 13 -16
29 -19 23 -5 31 -13 37 -39 4 -18 9 -27 11 -20 3 6 14 12 25 12 14 0 18 5 14
16 -3 9 -6 18 -6 20 0 2 -10 4 -22 5 -13 0 -17 3 -10 6 6 2 12 10 12 16 0 7
12 20 25 30 23 17 25 17 35 -4 8 -14 8 -25 2 -31 -5 -5 -7 -19 -4 -31 5 -19 8
-16 17 18 10 33 16 39 33 37 17 -3 22 2 22 20 1 21 2 20 15 -7 11 -25 14 -27
14 -9 1 29 -25 49 -60 46 -29 -2 -39 11 -19 23 8 5 7 11 -1 21 -9 11 -7 14 10
14 12 0 21 -6 21 -15 0 -9 11 -20 24 -25 13 -5 27 -14 31 -20 4 -6 15 -8 25
-5 14 4 16 1 12 -20 -3 -18 0 -25 12 -25 19 0 22 -27 4 -33 -7 -2 -1 -2 15 0
31 5 37 -15 12 -41 -21 -20 -19 -29 4 -16 11 5 29 10 40 10 26 0 27 9 4 26
-17 12 -16 15 12 38 25 21 32 23 41 10 17 -21 37 -18 31 6 -3 11 -1 20 3 20 5
0 11 8 13 18 3 9 5 0 6 -20 1 -35 21 -57 21 -24 0 26 20 28 29 4 l10 -23 0 23
c1 14 10 27 26 34 13 6 27 19 30 30 4 10 13 18 21 18 18 0 18 -9 0 -29 -8 -9
-18 -28 -21 -43 -6 -25 -5 -28 17 -26 15 1 24 8 24 19 0 10 -4 17 -9 16 -5 -1
-12 4 -14 11 -3 8 6 12 27 12 17 0 29 -4 25 -9 -3 -5 4 -12 15 -16 16 -5 18
-10 10 -26 -8 -13 -7 -19 0 -19 6 0 19 -7 27 -16 12 -12 18 -13 24 -3 11 18
-17 66 -43 75 -22 7 -22 8 7 15 16 5 39 6 52 3 23 -6 28 -26 24 -99 0 -14 1
-16 6 -5 3 8 12 19 19 23 19 11 18 38 -1 31 -8 -4 -15 -1 -15 5 0 6 12 11 28
11 24 1 25 2 10 13 -15 12 -15 14 3 25 25 16 17 48 -20 79 -14 12 -21 22 -16
22 6 1 25 -13 44 -30 34 -29 35 -31 35 -113 1 -46 4 -80 7 -74 4 6 17 3 35 -8
15 -10 32 -19 38 -20 6 0 17 -2 24 -2 20 -3 13 -22 -13 -34 -28 -13 -33 -39
-10 -58 17 -14 20 -30 6 -30 -5 0 -25 22 -44 49 -29 40 -39 48 -60 44 -21 -4
-26 -12 -29 -43 -2 -25 0 -36 8 -33 6 2 14 -3 17 -11 4 -9 15 -16 25 -16 10 0
27 -6 37 -14 18 -13 18 -14 -3 -20 -28 -9 -28 -33 -1 -41 16 -6 20 -13 17 -36
-5 -31 3 -34 61 -29 19 1 22 -2 17 -15 -3 -9 -6 -21 -6 -27 0 -6 -6 -8 -13 -5
-10 4 -12 -3 -9 -25 8 -54 54 -46 67 13 12 53 28 33 22 -26 -6 -55 -5 -56 23
-62 25 -4 28 -8 20 -24 -16 -30 -11 -41 18 -39 39 3 72 -10 72 -28 0 -13 -2
-13 -18 1 -25 22 -38 21 -56 -5 -21 -30 -4 -62 30 -55 23 4 24 2 24 -49 0 -60
-11 -68 -48 -34 -33 31 -59 25 -53 -12 2 -13 -16 -9 -27 5 -6 7 -9 23 -6 34 8
30 -27 63 -58 56 -13 -4 -27 -12 -31 -20 -5 -8 -16 -11 -27 -8 -26 8 -86 -19
-100 -45 -10 -18 -8 -26 10 -45 24 -26 20 -45 -11 -45 -34 0 -34 -29 0 -64 17
-17 31 -37 31 -43 0 -7 12 -18 28 -25 31 -15 42 -55 17 -64 -9 -4 -24 1 -35
11 -19 18 -21 17 -44 -4 -30 -28 -58 -24 -66 9 -8 33 -37 38 -49 8 -12 -33
-29 -44 -76 -53 -22 -4 -46 -11 -52 -17 -10 -8 -17 -2 -27 23 -17 40 -15 45
22 54 15 3 43 19 62 35 l35 28 -23 25 -24 25 21 11 c29 16 26 33 -13 75 l-34
37 19 37 c15 32 16 39 4 51 -13 13 -17 12 -33 -2 -10 -9 -31 -17 -46 -17 -31
0 -44 -24 -28 -50 6 -10 8 -28 4 -41 -5 -18 -15 -24 -39 -25 -30 -2 -32 0 -27
23 6 23 4 24 -27 21 -28 -2 -34 -7 -33 -25 0 -13 -3 -23 -7 -23 -14 0 -48 51
-55 83 -3 18 -11 35 -16 38 -12 7 -48 0 -49 -10 -6 -58 -5 -108 3 -118 7 -8
-2 -14 -34 -20 -51 -10 -64 -38 -25 -52 14 -6 28 -15 32 -20 10 -18 25 -12 25
9 0 27 26 25 45 -3 8 -13 35 -38 60 -56 25 -18 45 -36 45 -42 0 -5 -23 -9 -50
-9 -47 0 -55 4 -97 46 -40 39 -51 45 -82 42 -34 -3 -36 -5 -36 -38 0 -31 3
-35 25 -32 14 1 45 -8 70 -22 25 -13 63 -27 85 -31 62 -10 74 -17 40 -24 -37
-8 -35 -23 5 -34 35 -9 31 -27 -5 -27 -33 0 -55 -10 -55 -25 0 -9 11 -12 38
-8 35 5 41 1 82 -43 29 -32 55 -51 75 -54 24 -4 30 -10 32 -35 1 -16 8 -32 15
-34 17 -6 58 -48 58 -61 0 -6 -10 -8 -27 -4 -14 4 -42 8 -62 9 -57 3 -58 4
-91 31 -29 25 -33 25 -47 11 -14 -14 -10 -18 52 -46 37 -17 78 -31 91 -31 28
0 39 -17 35 -50 -4 -34 -9 -37 -25 -14 -8 10 -18 16 -22 11 -4 -4 -2 -13 4
-19 7 -7 12 -20 12 -31 0 -14 -6 -18 -27 -15 -25 3 -28 6 -25 39 2 34 0 37
-27 41 -37 5 -61 -7 -61 -32 0 -14 -7 -20 -23 -20 -28 0 -67 26 -67 46 0 30
-25 94 -37 94 -8 0 -13 13 -13 30 0 24 -5 31 -27 36 -18 5 -30 2 -38 -10 -7
-9 -21 -16 -33 -16 -11 0 -23 -8 -28 -17 -12 -29 -13 -77 -2 -91 6 -7 8 -15 5
-18 -12 -12 -84 67 -96 106 -13 42 -32 51 -57 25 -11 -11 -20 -12 -34 -5 -29
16 -43 11 -69 -21 l-24 -30 22 -6 c12 -3 21 -13 21 -24 0 -37 53 -36 63 1 9
36 52 25 94 -25 20 -25 45 -47 54 -50 9 -3 21 -17 27 -31 10 -20 9 -26 -3 -30
-17 -7 -56 16 -102 60 -51 49 -164 45 -148 -5 4 -11 2 -26 -5 -34 -7 -9 -8
-15 0 -20 21 -13 10 -44 -22 -59 -36 -19 -38 -18 -72 47 -27 51 -33 77 -16 77
6 0 10 7 10 16 0 11 -6 14 -20 9 -13 -4 -22 -1 -26 9 -3 9 -15 16 -26 16 -13
0 -18 -5 -15 -14 7 -17 -11 -36 -35 -36 -10 0 -18 -4 -18 -10 0 -5 7 -10 15
-10 9 0 12 -6 9 -15 -4 -8 -16 -15 -28 -15 -12 0 -26 -4 -32 -10 -16 -16 -36
6 -36 43 0 42 -26 58 -105 64 -49 4 -53 3 -53 -17 0 -13 8 -24 20 -27 18 -5
22 -10 19 -29 0 -4 5 -10 13 -15 7 -5 12 -21 10 -38 -3 -25 0 -29 15 -25 19 5
35 -15 48 -63 5 -17 2 -23 -9 -23 -22 0 -20 -20 5 -47 l22 -22 -23 -19 c-23
-19 -21 -42 4 -42 22 0 74 -30 80 -46 3 -8 -5 -37 -18 -65 l-23 -50 -16 25
c-10 14 -17 36 -17 50 0 26 -19 39 -39 27 -7 -5 -12 -14 -11 -22 5 -33 -1 -95
-10 -109 -9 -13 -12 -12 -25 4 -19 26 -19 80 0 96 22 18 18 35 -10 48 -52 24
-93 6 -74 -30 10 -19 11 -19 24 -1 13 17 14 17 21 0 7 -19 -2 -127 -12 -136
-11 -11 -84 84 -84 108 0 16 -4 21 -15 17 -8 -3 -15 -1 -15 4 0 9 -76 30 -119
33 -34 3 -38 -21 -4 -25 21 -2 27 -8 25 -22 -2 -11 1 -15 7 -11 6 3 11 0 11
-8 0 -8 15 -20 33 -27 17 -6 39 -15 47 -19 18 -9 89 -112 90 -128 0 -22 -48
-15 -55 7 -7 22 -16 25 -31 10 -6 -6 -22 -6 -43 0 -37 10 -51 6 -51 -15 0 -7
-13 -23 -30 -35 -16 -12 -30 -28 -30 -36 0 -12 5 -11 26 5 33 26 38 23 125
-65 28 -29 51 -43 78 -48 31 -5 40 -11 45 -32 4 -14 2 -32 -4 -39 -6 -7 -8
-25 -4 -41 6 -24 5 -26 -12 -20 -10 4 -28 9 -39 12 -11 2 -26 13 -34 24 -7 11
-24 20 -37 20 -15 0 -24 6 -24 15 0 19 -11 19 -36 1 -19 -14 -19 -15 5 -40 14
-14 30 -26 37 -26 42 0 100 -64 91 -101 -2 -9 -1 -23 4 -31 13 -24 -11 -48
-39 -37 -18 7 -21 14 -16 34 5 20 3 24 -9 19 -25 -9 -70 42 -63 71 8 32 -4 38
-83 40 -47 2 -68 7 -76 19 -7 12 -5 19 13 31 12 9 22 20 22 24 0 15 -30 21
-49 9 -29 -18 -94 2 -101 32 -4 18 -14 26 -32 28 -21 3 -29 -3 -42 -29 -9 -18
-16 -33 -16 -35 0 -1 14 -7 30 -13 17 -5 30 -17 30 -25 0 -22 -13 -20 -35 4
-10 11 -24 20 -31 20 -7 0 -18 -9 -24 -20 -14 -25 -26 -25 -47 0 -18 20 -43
27 -43 12 0 -5 20 -23 45 -41 38 -27 45 -37 45 -67 0 -19 -4 -34 -9 -34 -14 0
-41 41 -41 62 0 11 -8 18 -20 18 -18 0 -19 -3 -10 -20 9 -17 8 -20 -8 -20 -29
0 -59 31 -71 75 -12 44 -14 117 -5 153 7 25 31 30 36 7 2 -10 8 -12 17 -5 12
7 13 11 1 25 -9 11 -29 16 -64 15 -28 0 -62 -1 -76 -1 -14 0 -49 0 -79 -1 -45
0 -57 3 -75 25 -11 14 -35 28 -53 32 -44 9 -60 -21 -43 -79 7 -23 14 -47 16
-53 5 -20 32 -15 44 6 18 35 59 8 115 -76 28 -41 59 -93 70 -114 14 -26 27
-38 42 -39 13 0 35 -16 55 -40 18 -23 50 -50 71 -61 21 -11 35 -24 32 -30 -4
-5 -10 -7 -15 -4 -4 3 -10 -4 -13 -15 -3 -12 -14 -20 -26 -20 -14 0 -19 5 -15
14 4 10 -6 20 -30 30 -26 11 -41 26 -51 51 -17 40 -16 40 -56 20 -34 -18 -30
-35 7 -35 17 0 36 -12 57 -37 36 -41 60 -65 130 -125 38 -33 47 -47 45 -67 -3
-22 -7 -26 -32 -23 -22 2 -35 -3 -47 -20 -25 -32 -37 -13 -16 23 9 17 17 36
17 42 -1 17 -40 -32 -40 -49 0 -8 -5 -14 -11 -14 -7 0 -9 16 -4 49 4 31 3 51
-4 56 -6 3 -11 17 -11 31 0 15 -6 24 -16 24 -14 0 -15 -9 -9 -67 3 -38 9 -79
12 -92 5 -21 3 -22 -18 -16 -13 4 -31 10 -39 12 -8 3 -3 -7 13 -21 29 -27 36
-63 13 -72 -21 -8 -50 11 -85 55 -36 45 -33 76 5 67 31 -8 30 -1 -2 42 -26 34
-27 37 -21 140 3 58 11 110 17 116 17 17 11 26 -20 26 -21 0 -30 -5 -30 -16 0
-9 -9 -18 -20 -21 -11 -3 -17 -9 -15 -14 3 -4 12 -6 20 -3 23 9 32 -32 27
-115 -4 -61 -8 -74 -23 -78 -11 -3 -19 -14 -19 -24 0 -23 -13 -24 -31 -3 -11
14 -10 19 6 33 11 9 21 28 23 42 3 24 0 26 -23 22 -14 -3 -25 -10 -24 -17 4
-31 -2 -48 -15 -43 -7 3 -18 1 -24 -5 -6 -6 -19 -5 -39 5 -19 10 -34 12 -44 6
-53 -33 -64 17 -24 105 29 64 38 72 58 51 18 -18 37 -20 37 -4 0 17 -62 75
-88 83 -17 6 -24 2 -34 -18 -12 -28 -24 -33 -31 -13 -3 9 -9 9 -23 1 -24 -14
-30 -34 -10 -34 31 0 12 -46 -40 -98 -41 -40 -47 -40 -39 -2 8 38 -17 42 -41
5 -11 -18 -25 -25 -47 -25 l-30 0 7 56 c6 50 4 55 -11 52 -16 -3 -18 -14 -14
-100 3 -85 0 -102 -20 -142 -17 -35 -28 -46 -46 -46 -30 0 -30 24 -2 114 20
62 20 72 8 128 -11 49 -19 62 -43 75 -28 15 -29 14 -23 -9 3 -12 9 -34 13 -47
5 -16 4 -22 -4 -17 -6 3 -13 20 -17 36 -4 17 -14 44 -22 61 -9 19 -13 44 -10
65 5 32 -5 46 -18 24 -4 -6 -10 -8 -14 -5 -5 2 -17 -2 -27 -10 -18 -13 -18
-15 13 -42 21 -19 36 -46 48 -88 9 -33 21 -70 25 -82 12 -30 -10 -72 -63 -119
-37 -34 -42 -36 -46 -19 -2 11 -12 28 -22 38 -11 10 -19 31 -19 48 0 17 -4 28
-9 25 -5 -4 -7 2 -5 11 3 10 -2 27 -11 38 -16 19 -16 18 -11 -19 5 -35 4 -37
-8 -20 -14 20 -42 100 -51 146 -3 18 -12 28 -23 28 -10 0 -22 4 -27 9 -6 5
-20 12 -32 16 -17 5 -23 2 -23 -9 0 -9 11 -18 25 -22 16 -4 25 -13 25 -26 0
-10 11 -29 24 -41 13 -12 36 -53 51 -92 15 -38 36 -85 47 -103 11 -18 17 -36
14 -39 -11 -11 -42 28 -76 94 -18 35 -36 63 -42 63 -5 0 -17 -18 -26 -40 -9
-22 -22 -40 -28 -40 -10 0 -49 75 -49 97 0 22 -15 26 -33 9 -25 -22 -66 -15
-70 12 -3 22 -26 30 -37 13 -3 -5 -20 -7 -38 -4 -24 3 -39 -1 -57 -15 l-25
-21 20 -38 c19 -34 24 -38 56 -35 33 2 37 -1 72 -60 21 -35 45 -73 54 -86 14
-20 14 -22 -3 -22 -28 0 -100 53 -147 107 -23 26 -54 59 -69 72 -16 13 -28 30
-28 36 0 15 -22 25 -54 25 -25 0 -46 -34 -46 -75 0 -22 2 -23 32 -14 18 5 42
9 54 9 22 0 100 -73 134 -125 17 -26 113 -75 147 -75 8 0 25 -12 39 -27 22
-24 25 -25 42 -10 19 17 30 14 92 -25 14 -9 43 -21 65 -28 22 -6 56 -20 76
-31 21 -10 43 -17 51 -14 7 3 43 -1 78 -8 65 -13 65 -13 66 -47 1 -40 -20 -80
-41 -80 -8 0 -15 -5 -15 -10 0 -18 -65 16 -110 58 -24 22 -50 38 -57 35 -19
-7 -16 -21 5 -27 21 -7 62 -43 62 -55 0 -15 -86 6 -118 29 -18 13 -32 27 -32
32 0 16 -63 78 -80 78 -24 0 -37 -20 -20 -30 7 -5 9 -16 5 -30 -6 -19 -4 -21
17 -18 13 2 23 10 23 20 0 9 4 20 8 24 4 4 7 -3 7 -16 0 -13 12 -36 27 -52 25
-27 26 -28 9 -47 -11 -13 -15 -27 -11 -40 7 -25 27 -27 45 -6 16 20 34 19 51
-1 12 -15 11 -16 -11 -10 l-25 7 25 -20 c14 -11 28 -21 32 -21 3 0 21 -25 38
-55 32 -56 34 -90 5 -79 -9 4 -15 0 -15 -10 0 -9 6 -13 14 -10 8 3 16 1 19 -4
12 -17 15 -62 6 -67 -5 -4 -9 -2 -9 4 0 5 -19 11 -42 13 -39 3 -43 6 -46 30
-2 16 -7 28 -12 28 -5 0 -15 3 -24 6 -11 4 -16 1 -16 -10 0 -20 -9 -20 -35 -2
-11 7 -32 16 -47 20 -15 3 -32 15 -38 26 -13 24 -58 27 -67 3 -6 -16 2 -54 32
-133 21 -57 37 -149 28 -164 -4 -6 -6 -22 -4 -35 2 -16 -1 -21 -10 -16 -6 5
-27 8 -45 9 l-34 1 57 -54 c48 -46 54 -55 39 -63 -14 -8 -15 -12 -4 -26 11
-14 10 -15 -7 -8 -43 18 -55 18 -55 3 0 -8 -7 -20 -15 -27 -19 -16 -4 -29 35
-31 14 0 19 -3 13 -6 -18 -7 -16 -30 2 -37 19 -7 19 -60 1 -136 -14 -63 -35
-72 -50 -22 -11 40 -30 42 -24 2 5 -34 -4 -44 -46 -54 -27 -7 -28 -6 -24 24
l5 30 -29 -27 c-15 -14 -30 -24 -34 -21 -11 12 -25 90 -18 110 3 10 0 26 -8
35 -8 10 -13 43 -14 85 -1 66 -11 88 -25 51 -5 -15 -8 -13 -14 12 -13 58 -18
70 -27 76 -7 5 -14 38 -18 94 -2 29 -20 -26 -20 -62 0 -33 4 -43 20 -48 20 -6
24 -27 20 -102 -1 -22 3 -33 12 -33 8 0 13 -13 13 -38 0 -20 -4 -37 -10 -37
-5 0 -9 6 -9 13 1 6 -2 12 -7 12 -5 0 -9 -5 -9 -11 0 -5 -4 -7 -10 -4 -5 3
-10 41 -11 83 -1 76 -1 76 -13 37 -7 -23 -19 -41 -29 -43 -14 -3 -17 4 -17 39
l0 42 -36 -37 c-42 -43 -51 -42 -28 3 16 31 13 68 -5 57 -4 -3 -11 -24 -15
-46 -3 -22 -11 -40 -16 -40 -8 0 -16 55 -11 83 1 4 -13 36 -30 70 -16 34 -37
93 -45 131 -15 72 -20 84 -30 73 -3 -3 4 -50 17 -104 13 -54 23 -122 24 -151
0 -34 4 -52 12 -52 13 0 17 -11 32 -99 7 -41 5 -67 -6 -105 -7 -28 -17 -64
-21 -81 -5 -18 -11 -25 -15 -18 -9 14 -12 111 -4 119 3 3 -9 18 -26 34 -28 25
-30 31 -22 56 9 23 6 31 -15 54 -14 14 -31 35 -38 45 -11 18 -12 16 -8 -15 3
-19 10 -55 16 -80 6 -25 11 -53 11 -62 0 -10 4 -20 10 -23 5 -4 9 -15 9 -26 0
-15 -7 -19 -31 -19 -28 0 -31 -3 -25 -23 19 -60 18 -62 -13 -27 -37 42 -73
141 -53 148 6 2 12 13 12 24 0 11 -5 18 -12 15 -19 -6 -37 138 -43 338 -5 185
-9 210 -30 232 -8 8 -15 23 -15 34 0 10 -5 19 -10 19 -6 0 -8 -10 -6 -23 25
-111 31 -248 17 -347 -11 -78 -19 -100 -37 -100 -11 0 -10 -8 2 -42 18 -51 10
-138 -12 -138 -18 0 -18 -24 0 -40 17 -13 10 -40 -10 -40 -8 0 -14 -4 -14 -10
0 -5 3 -10 8 -10 4 0 5 -24 3 -52 l-3 -53 -23 29 c-14 17 -25 49 -29 80 -7 58
-45 145 -63 146 -16 0 -16 -15 1 -63 21 -59 -2 -55 -28 5 -22 49 -51 86 -60
77 -10 -9 22 -102 37 -111 22 -12 22 -37 0 -54 -17 -12 -17 -14 0 -31 16 -17
17 -16 17 5 0 12 4 22 9 22 16 0 41 -30 41 -49 0 -9 5 -22 11 -28 22 -22 27
-81 12 -135 l-16 -52 -18 23 c-11 13 -19 32 -19 43 0 12 -10 23 -29 29 -19 7
-29 17 -29 32 0 30 -44 125 -50 109 -2 -8 1 -19 7 -25 6 -6 11 -23 11 -37 0
-14 6 -32 12 -38 10 -10 10 -15 -2 -22 -12 -7 -11 -14 5 -44 11 -20 25 -36 33
-36 18 0 28 -30 12 -40 -17 -10 -4 -30 20 -30 28 0 33 -16 19 -55 -15 -41 -22
-43 -37 -12 -9 18 -10 15 -5 -22 3 -24 2 -46 -4 -50 -6 -3 -7 -29 -3 -64 3
-31 3 -63 -2 -70 -4 -6 -8 -40 -8 -74 0 -44 -4 -63 -12 -63 -18 0 -33 12 -41
32 -5 15 -10 14 -39 -12 -36 -33 -48 -37 -48 -16 0 7 -7 27 -15 42 -8 16 -15
37 -15 46 0 25 -11 48 -22 48 -6 0 -7 -11 -3 -28 4 -15 9 -38 10 -52 1 -14 6
-37 10 -53 6 -23 4 -27 -13 -27 -36 0 -147 39 -169 60 -12 11 -28 20 -36 20
-7 0 -26 13 -41 29 -16 16 -39 32 -51 35 -18 5 -25 15 -30 47 -4 22 -13 53
-21 67 -8 15 -14 42 -14 61 0 28 -3 33 -19 28 -22 -5 -33 1 -50 28 l-12 20 5
-20 c2 -11 18 -51 34 -90 22 -53 26 -71 16 -73 -22 -5 -74 37 -75 61 0 12 -3
16 -6 10 -8 -22 -50 -15 -56 9 -5 18 -8 19 -22 8 -13 -11 -20 -11 -39 0 -34
18 -47 6 -33 -30 10 -28 13 -29 24 -14 10 14 15 15 28 4 9 -8 14 -22 12 -32
-6 -20 19 -26 25 -6 3 9 12 8 31 -5 14 -9 35 -17 46 -17 31 0 83 -49 76 -71
-5 -14 5 -30 34 -58 23 -22 41 -46 41 -53 0 -8 16 -45 35 -84 19 -38 35 -74
35 -80 0 -20 -39 -24 -49 -6 -14 24 -23 9 -12 -19 5 -13 10 -20 10 -15 1 14
30 -14 45 -46 13 -26 13 -30 -1 -35 -9 -4 -26 6 -45 26 -16 17 -35 31 -43 31
-21 0 -29 43 -15 85 9 26 9 44 1 63 -5 15 -12 38 -14 52 -2 14 -5 -12 -6 -57
0 -46 -3 -83 -6 -83 -11 0 -55 55 -75 91 -10 19 -26 41 -34 48 -14 12 -15 10
-9 -20 3 -19 17 -42 30 -52 13 -10 23 -29 23 -43 0 -13 5 -24 10 -24 6 0 8
-12 5 -27 -4 -16 -7 -44 -8 -63 -2 -28 -6 -35 -22 -35 -16 0 -20 -7 -21 -35
-1 -19 -5 -45 -9 -57 -5 -15 -3 -23 4 -23 6 0 11 -11 11 -25 0 -14 -4 -25 -10
-25 -5 0 -10 -8 -10 -19 0 -10 -6 -24 -14 -31 -8 -6 -17 -21 -19 -33 -3 -21
-4 -21 -12 -3 -5 12 -5 21 1 23 5 2 8 21 6 43 -3 25 0 40 7 40 6 0 11 12 11
28 0 25 -2 24 -22 -15 -22 -44 -40 -50 -30 -10 5 22 5 22 -16 4 -20 -18 -21
-18 -31 2 -14 26 -19 140 -7 165 9 18 8 18 -12 0 -12 -10 -22 -24 -22 -30 0
-6 -6 -17 -14 -23 -19 -16 -35 6 -42 63 -4 29 -12 46 -20 46 -8 0 -14 -7 -14
-15 0 -8 -5 -15 -11 -15 -14 0 -3 49 16 70 7 8 39 65 70 125 31 61 63 117 70
125 7 8 17 28 21 44 6 25 4 28 -10 23 -19 -7 -20 -3 -6 23 7 13 5 21 -6 31
-20 16 -34 -3 -33 -46 1 -62 -20 -138 -46 -165 -14 -14 -25 -33 -25 -41 -1
-18 -35 -59 -50 -59 -8 0 -10 13 -5 43 l7 42 -26 -24 c-21 -20 -28 -22 -41
-11 -8 7 -15 21 -15 31 0 10 -4 20 -9 23 -5 3 -12 18 -15 33 -13 54 -28 82
-41 77 -9 -4 -15 5 -17 28 l-3 33 -19 -37 -18 -38 31 -35 c31 -36 39 -63 21
-81 -6 -6 -6 -15 0 -24 8 -12 11 -11 16 8 8 28 27 23 34 -9 4 -13 13 -40 22
-59 14 -30 15 -37 3 -49 -12 -12 -18 -12 -40 3 -26 17 -49 61 -40 76 3 4 -4 6
-15 3 -16 -4 -23 2 -34 28 -13 31 -44 67 -73 83 -9 5 -9 -2 -3 -24 5 -17 7
-37 4 -45 -3 -8 1 -29 10 -46 9 -18 16 -37 16 -43 0 -18 -94 -149 -105 -147
-5 1 -9 18 -8 38 2 20 -2 42 -8 49 -6 8 -8 21 -5 30 4 9 -4 28 -19 46 -14 16
-25 38 -25 48 0 32 -11 50 -31 50 -27 0 -24 -19 8 -52 24 -25 26 -31 15 -48
-10 -16 -9 -28 7 -62 16 -38 42 -148 35 -148 -2 0 -18 9 -36 20 -42 25 -47 25
-41 -3 4 -18 1 -17 -15 8 -26 39 -37 75 -23 75 20 0 11 28 -10 33 -17 5 -20 2
-16 -14 9 -33 -26 -22 -71 24 -32 32 -44 55 -53 97 -18 80 -33 88 -25 13 8
-69 -4 -82 -39 -43 -10 11 -23 20 -28 20 -17 0 -77 50 -77 65 0 8 -4 17 -10
20 -5 3 -10 0 -10 -7 0 -22 117 -138 154 -153 55 -23 105 -101 56 -88 -16 4
-19 2 -14 -11 3 -9 10 -16 15 -16 11 0 42 -60 35 -67 -9 -9 -66 18 -76 36 -6
10 -10 11 -10 4 0 -25 -22 -12 -80 47 -32 33 -66 60 -74 60 -27 0 -18 -17 20
-40 29 -16 34 -24 25 -33 -15 -15 -99 30 -153 81 -21 20 -38 31 -38 26 0 -6 9
-19 20 -29 22 -20 27 -45 9 -45 -7 0 0 -9 14 -20 14 -11 38 -20 54 -20 16 0
37 -6 48 -14 11 -7 38 -16 59 -19 33 -5 52 -20 118 -89 43 -45 78 -86 78 -91
0 -4 -7 -10 -15 -13 -22 -9 -18 -21 8 -29 19 -6 19 -8 5 -12 -26 -6 -22 -15
17 -40 33 -21 35 -21 35 -3 0 10 -5 22 -10 25 -15 9 -2 25 21 25 12 0 23 -10
29 -25 6 -17 17 -25 33 -25 27 0 117 -88 117 -114 0 -21 -16 -28 -32 -13 -25
24 -67 47 -86 47 -11 0 -27 12 -37 26 -12 19 -22 24 -39 20 -16 -4 -29 1 -41
14 -9 10 -30 22 -45 25 -16 3 -34 13 -41 21 -6 8 -16 14 -21 14 -13 0 -120 71
-135 90 -11 13 -12 13 -13 -3 0 -20 46 -67 65 -67 7 0 24 -9 38 -20 14 -11 32
-20 41 -20 30 0 96 -96 96 -140 0 -30 -13 -24 -34 15 -25 46 -49 48 -34 2 6
-17 16 -38 21 -45 6 -8 11 -39 11 -70 1 -55 2 -57 29 -60 18 -2 32 -13 42 -31
8 -16 21 -31 30 -34 8 -4 15 -17 15 -30 0 -14 7 -30 15 -37 8 -7 15 -20 15
-29 0 -9 7 -27 16 -39 9 -13 14 -32 11 -42 -3 -10 4 -28 14 -39 11 -11 19 -25
19 -31 0 -5 9 -10 20 -10 21 0 28 24 10 35 -5 3 -10 15 -10 26 0 33 24 16 33
-24 7 -30 14 -37 33 -37 14 0 24 6 24 15 0 9 -6 12 -15 9 -9 -4 -18 3 -25 17
-14 35 -36 60 -55 63 -18 3 -44 63 -37 85 2 7 -5 15 -17 18 -21 5 -30 23 -11
23 6 0 10 4 10 10 0 5 -7 7 -15 4 -17 -7 -19 4 -6 25 15 23 52 5 118 -56 50
-46 76 -62 128 -78 61 -18 65 -21 67 -50 1 -16 2 -37 4 -45 1 -8 2 -21 3 -27
1 -10 40 -13 161 -13 136 0 160 2 160 15 0 8 7 15 15 15 8 0 15 -7 15 -15 0
-11 12 -15 45 -15 46 0 54 7 33 28 -9 9 -9 12 0 12 7 0 21 -9 32 -20 20 -20
36 -20 1688 -20 1658 0 1669 0 1687 20 23 25 35 25 35 0 0 -18 7 -20 63 -20
56 1 60 2 42 15 -62 44 -66 75 -10 75 42 0 52 -15 29 -41 -17 -19 -17 -20 0
-13 13 5 24 0 36 -16 16 -21 20 -22 34 -10 13 10 20 10 28 2 17 -17 188 -16
188 0 0 9 3 9 12 0 16 -16 808 -17 808 -2 0 6 7 10 15 10 8 0 15 -4 15 -10 0
-5 7 -10 15 -10 8 0 15 7 15 15 0 8 4 15 9 15 5 0 14 -7 21 -15 10 -12 39 -15
146 -15 l134 0 -10 26 c-12 31 -3 74 16 74 8 0 14 8 14 18 0 19 18 42 32 42
11 0 10 -26 -1 -48 -5 -9 -12 -25 -15 -36 -4 -12 -12 -16 -22 -12 -12 5 -15 2
-10 -10 3 -8 6 -24 6 -35 0 -19 19 -19 849 -19 620 0 857 3 881 12 26 9 35 9
38 0 3 -9 246 -12 983 -12 866 0 978 2 973 15 -4 8 -1 15 5 15 6 0 11 -7 11
-15 0 -8 5 -15 10 -15 15 0 13 453 -2 468 -9 9 -9 12 0 12 8 0 12 17 11 48 0
26 -3 41 -6 35 -6 -16 -35 -17 -51 -1 -21 21 -13 30 23 26 33 -4 35 -3 35 27
0 17 -5 36 -12 43 -9 9 -9 15 0 24 15 15 16 134 2 143 -7 4 -7 12 0 25 6 11
10 136 10 316 0 272 -1 296 -16 278 -14 -18 -15 -16 -9 26 3 25 10 46 15 48 6
2 10 631 10 1693 0 1682 0 1689 -20 1689 -24 0 -26 22 -5 40 11 9 14 22 9 46
-4 22 -2 34 5 34 6 0 11 19 11 45 0 33 -4 45 -15 45 -8 0 -15 7 -15 15 0 9 7
18 15 21 13 5 15 58 15 389 0 328 -2 384 -15 395 -8 7 -15 18 -15 25 0 19 -27
26 -40 10 -7 -8 -8 -20 -4 -27 11 -18 15 -128 4 -128 -5 0 -14 9 -20 20 -6 11
-16 20 -23 19 -7 -1 -20 1 -30 6 -33 14 -44 -12 -17 -40 23 -24 23 -25 3 -25
-11 0 -28 -11 -36 -24 -11 -16 -33 -28 -67 -36 -56 -13 -61 -18 -62 -60 -1
-16 -7 -31 -15 -34 -8 -4 -13 -17 -11 -33 2 -20 -1 -27 -11 -25 -8 2 -17 -1
-20 -6 -3 -5 -21 -12 -39 -15 -31 -6 -33 -5 -30 17 1 13 -2 30 -9 37 -16 20
-19 167 -4 182 6 6 21 12 34 12 27 0 34 27 12 48 -9 10 -11 18 -5 22 21 13 9
44 -27 66 -30 18 -34 24 -20 27 12 2 16 9 12 22 -8 25 15 37 30 17 16 -23 42
-21 55 2 6 13 16 17 30 14 16 -4 23 0 27 15 3 11 11 23 19 26 8 3 14 12 14 20
0 15 -27 29 -40 21 -5 -3 -21 0 -35 7 -24 11 -25 13 -8 19 16 7 16 8 -3 8 -12
1 -25 -7 -29 -16 -6 -17 -7 -17 -16 0 -7 11 -22 17 -47 17 -49 0 -69 28 -51
72 23 56 -18 96 -70 68 -13 -7 -17 -17 -13 -36 4 -23 2 -25 -18 -19 -12 4 -31
16 -41 26 -10 10 -24 19 -30 19 -7 0 -9 11 -6 29 3 15 1 33 -5 39 -13 13 -35
2 -92 -46 -22 -17 -44 -32 -50 -32 -6 0 -33 11 -60 24 -43 21 -46 25 -28 31
12 3 22 10 22 15 0 4 12 11 27 15 20 5 31 2 40 -11 12 -17 14 -17 28 2 10 12
14 35 13 62 -2 28 1 41 8 38 17 -6 34 15 34 42 0 13 4 20 10 17 5 -3 10 -17
10 -30 0 -31 35 -52 56 -34 12 10 14 24 9 56 -4 30 -3 43 6 43 6 0 9 -8 6 -19
-5 -21 54 -64 61 -43 2 7 10 12 18 12 8 0 14 5 14 10 0 6 7 10 15 10 26 0 65
31 65 51 0 11 5 19 11 19 5 0 8 4 5 9 -6 10 17 31 56 51 15 7 30 22 34 33 3
11 22 35 41 54 20 18 33 37 29 40 -10 10 25 43 46 43 10 0 18 6 18 13 0 16 54
79 62 72 11 -11 -16 -64 -39 -76 -13 -7 -23 -18 -23 -25 0 -7 -9 -16 -20 -19
-11 -3 -20 -11 -20 -16 0 -5 -4 -15 -10 -22 -13 -17 -87 -105 -135 -161 -44
-52 -52 -66 -37 -66 6 0 12 6 15 13 3 9 8 9 17 1 9 -9 7 -15 -10 -27 -20 -14
-19 -15 22 -13 91 5 90 4 79 25 -17 30 6 42 32 16 14 -13 16 -10 22 24 6 38
13 44 65 57 28 6 46 -6 60 -41 7 -19 17 -32 22 -29 17 10 58 11 64 2 9 -13
-33 -55 -62 -62 -13 -4 -24 -12 -24 -19 0 -7 -18 -26 -40 -43 -22 -16 -40 -32
-40 -36 0 -5 20 -8 45 -8 25 0 45 -4 45 -10 0 -5 12 -10 27 -10 21 0 24 3 15
12 -28 28 -3 75 30 57 13 -7 18 -6 19 3 1 7 2 18 3 25 0 6 13 25 29 42 18 21
27 42 27 65 0 32 -2 34 -46 41 -26 4 -44 11 -42 17 5 15 55 21 63 8 3 -5 10
-10 16 -10 14 0 11 64 -3 79 -10 11 -10 14 -1 18 10 4 13 1418 13 6984 l0
6979 -11525 0 -11525 0 -12 -27 c-6 -16 -28 -66 -48 -113 -20 -47 -50 -119
-65 -160 -16 -41 -33 -79 -39 -85 -6 -5 -12 -22 -13 -36 -2 -35 -43 -130 -53
-124 -5 3 3 35 17 73 49 132 86 228 108 277 26 57 75 183 75 190 0 3 -1336 5
-2970 5 l-2970 0 0 -6953z m16535 6383 c3 -5 -1 -10 -9 -10 -9 0 -16 -5 -16
-11 0 -6 -7 -9 -15 -5 -8 3 -15 2 -15 -2 0 -4 -24 -18 -53 -32 -28 -14 -54
-27 -57 -30 -3 -3 -25 -15 -50 -28 -25 -12 -73 -40 -107 -62 -35 -21 -79 -44
-98 -51 -19 -7 -35 -16 -35 -19 0 -6 -30 -23 -55 -30 -5 -2 -16 -10 -23 -17
-15 -15 -32 -17 -32 -4 0 16 26 34 130 89 30 16 84 46 118 66 35 20 70 36 77
36 7 0 15 7 19 15 3 8 15 15 26 15 11 0 20 4 20 8 0 5 21 18 47 28 26 10 61
26 77 35 39 21 43 21 51 9z m-8923 -5387 c-3 -380 -6 -445 -22 -393 -8 27 -4
538 6 688 12 193 19 78 16 -295z m8 -695 c7 -145 15 -296 17 -335 3 -45 1 -73
-5 -73 -6 0 -13 33 -16 73 -3 39 -10 135 -16 213 -12 167 -13 384 -2 384 5 0
14 -118 22 -262z m8176 -2055 c15 -27 41 -66 59 -88 17 -22 44 -60 59 -85 56
-87 130 -177 296 -360 81 -90 95 -108 86 -118 -8 -7 -77 58 -128 123 -22 28
-61 73 -87 101 -87 95 -139 160 -171 215 -18 30 -49 77 -69 104 -49 66 -91
132 -91 145 0 23 20 7 46 -37z m7384 -61 c0 -17 -151 -248 -207 -317 -14 -16
-56 -73 -95 -125 -68 -91 -140 -181 -183 -225 -11 -11 -36 -40 -55 -63 -19
-23 -41 -44 -47 -47 -29 -10 -10 25 43 81 66 70 136 156 229 279 37 50 74 91
82 93 7 2 13 9 13 15 0 7 33 61 73 122 40 60 85 129 100 153 25 38 47 54 47
34z m-8125 -2394 c204 -178 354 -302 410 -340 63 -43 111 -85 104 -93 -7 -6
-238 162 -274 200 -30 33 -164 148 -185 161 -22 12 -150 131 -150 139 0 12 17
1 95 -67z m12955 -1392 c0 -13 -41 -69 -142 -195 -24 -29 -61 -77 -83 -106
-101 -133 -283 -349 -401 -475 -101 -108 -116 -125 -124 -141 -5 -9 -23 -19
-39 -21 l-30 -4 17 28 c10 17 25 28 38 28 17 0 24 8 29 29 5 24 65 91 92 103
5 1 46 47 93 101 47 55 109 126 138 159 28 33 52 64 52 69 0 5 8 17 18 27 9
10 35 40 57 67 22 27 50 60 63 73 12 12 22 25 22 28 0 3 6 11 13 18 6 7 23 28
37 46 14 18 49 63 77 99 29 36 53 69 53 74 0 4 5 7 10 7 6 0 10 -6 10 -14z
m-11662 -692 c59 -25 114 -47 122 -49 18 -4 157 -59 215 -85 22 -10 121 -46
220 -79 98 -34 181 -63 183 -66 2 -2 1 -8 -2 -13 -8 -13 -278 78 -471 158 -82
34 -161 65 -176 70 -52 16 -219 93 -219 101 0 15 17 10 128 -37z m-1132 -294
c12 -12 134 -78 309 -166 72 -36 137 -72 145 -79 8 -7 25 -16 38 -19 27 -9 30
-30 2 -23 -11 3 -20 1 -20 -4 0 -5 4 -9 9 -9 5 0 17 -3 26 -6 9 -4 15 -2 13 4
-7 22 11 17 187 -63 17 -7 53 -23 80 -35 28 -12 64 -27 80 -35 17 -7 41 -17
55 -21 14 -4 63 -22 110 -41 47 -20 128 -51 180 -70 52 -20 111 -41 130 -49
19 -7 40 -13 47 -14 6 0 24 -5 40 -12 15 -6 48 -18 73 -27 33 -12 46 -22 48
-38 3 -18 -1 -23 -20 -23 -43 0 -604 205 -633 231 -5 5 -15 9 -23 9 -13 0 -70
24 -227 95 -81 36 -167 79 -245 121 -113 62 -184 98 -210 109 -58 23 -250 138
-250 149 0 26 36 36 56 16z m1975 -6 c62 -21 287 -82 394 -105 113 -24 125
-28 125 -40 0 -16 -47 -10 -192 26 -220 54 -401 109 -406 123 -5 17 27 15 79
-4z m10429 -319 c0 -14 6 -25 13 -25 8 0 21 -18 30 -40 15 -39 15 -41 -5 -51
-15 -8 -17 -13 -8 -19 6 -4 -24 -10 -67 -12 -88 -6 -93 -3 -93 57 0 30 3 36
12 27 15 -15 40 -15 72 -1 21 10 23 16 20 50 -4 30 -2 39 11 39 9 0 15 -9 15
-25z m-13889 -130 c73 -52 145 -103 159 -113 183 -136 588 -389 795 -497 61
-32 121 -66 135 -76 14 -9 122 -66 240 -125 118 -59 228 -120 244 -135 34 -33
27 -35 -34 -14 -50 18 -393 189 -430 215 -14 9 -59 34 -100 55 -41 22 -99 54
-128 72 -29 18 -56 33 -60 33 -16 0 -343 204 -457 285 -27 19 -102 70 -165
112 -191 127 -349 247 -349 266 -1 9 3 17 7 17 4 0 69 -43 143 -95z m12889 35
c0 -5 12 -13 28 -16 41 -10 101 -46 106 -63 3 -9 8 -38 12 -65 6 -47 6 -48
-17 -42 -44 12 -143 61 -162 79 -10 10 -22 15 -27 12 -20 -12 -9 12 15 35 14
13 25 34 25 47 0 13 5 23 10 23 6 0 10 -4 10 -10z m1534 -479 c39 -13 52 -23
57 -44 4 -15 17 -38 28 -53 26 -33 27 -73 4 -80 -10 -3 -26 -10 -36 -15 -35
-19 -73 20 -61 66 5 18 0 24 -25 33 -30 11 -43 30 -57 87 -5 21 -3 25 17 24
13 0 46 -8 73 -18z m-182 -168 c9 -21 22 -53 28 -70 13 -35 28 -41 48 -21 16
16 46 -12 60 -59 14 -45 10 -50 -20 -29 -25 18 -58 21 -58 6 0 -5 -4 -10 -10
-10 -5 0 -10 9 -10 20 0 11 -6 20 -12 20 -23 0 -89 -27 -109 -43 -18 -16 -19
-15 -19 12 0 16 6 31 15 35 21 8 19 33 -4 39 -19 5 -33 48 -21 67 4 6 13 9 21
6 52 -17 67 -16 72 5 3 12 1 32 -4 46 -15 39 6 18 23 -24z m-5594 -377 c-15
-13 -46 -26 -73 -30 -25 -4 -49 -14 -52 -22 -3 -7 -9 -11 -15 -8 -5 3 -20 -4
-34 -17 -20 -19 -27 -21 -49 -11 -24 11 -38 7 -85 -23 -8 -5 -31 -11 -51 -12
-19 -1 -62 -14 -95 -29 -32 -15 -78 -28 -101 -30 -37 -4 -58 -13 -124 -53 -10
-6 -20 -6 -30 0 -11 8 -11 12 -1 16 6 2 12 10 12 17 0 17 39 47 58 45 9 -2 35
3 57 9 22 7 51 12 65 12 14 0 43 9 64 20 21 10 54 22 72 24 29 5 71 19 139 46
11 4 40 13 65 20 25 7 57 17 72 22 15 6 31 7 36 4 6 -3 12 1 16 9 3 10 19 15
43 15 l38 -1 -27 -23z m-2648 -585 c0 -12 -439 -16 -675 -6 -60 3 -112 5 -114
5 -3 0 1 6 7 12 10 10 87 12 315 11 166 -1 329 1 362 5 45 6 66 4 83 -6 12 -8
22 -17 22 -21z m5752 -510 c10 -13 28 -21 58 -23 40 -3 45 -6 48 -28 3 -23
-44 -110 -59 -110 -4 0 -10 11 -13 25 -5 18 -13 25 -30 25 -13 0 -35 9 -48 20
-29 22 -38 18 -38 -20 0 -25 -16 -50 -32 -50 -13 0 -9 28 5 33 6 3 2 6 -10 6
-37 2 -27 34 27 90 54 55 72 61 92 32z m168 -81 c0 -23 15 -27 24 -5 6 17 42
20 52 4 3 -6 2 -14 -3 -18 -15 -9 -29 -41 -37 -79 -5 -28 -3 -35 13 -39 24 -6
35 -30 19 -39 -7 -4 -14 -2 -16 4 -6 18 -40 14 -51 -5 -19 -34 -24 -3 -6 43
16 42 16 47 2 62 -13 13 -19 13 -31 2 -9 -7 -16 -21 -16 -31 0 -12 -7 -19 -20
-19 -11 0 -20 5 -20 12 0 13 38 96 53 116 15 19 37 14 37 -8z m-1423 -175 c25
-12 32 -26 51 -92 21 -78 36 -223 22 -223 -7 0 -62 66 -97 118 -19 27 -23 47
-23 107 0 63 6 105 15 105 1 0 15 -7 32 -15z m188 -149 c9 -13 18 -50 21 -82
5 -54 2 -65 -30 -127 -20 -38 -36 -75 -36 -83 0 -8 -4 -14 -9 -14 -15 0 -19
24 -7 43 8 12 7 22 -2 37 -19 31 -15 59 11 69 30 12 67 48 67 66 0 18 -21 20
-37 4 -6 -6 -20 -8 -32 -4 -25 8 -29 50 -6 59 8 3 20 17 27 31 14 31 14 31 33
1z m145 -40 c0 -32 20 -44 27 -17 3 12 12 21 19 21 17 0 16 3 5 -38 -9 -30 -8
-34 16 -43 15 -5 36 -9 47 -8 52 6 141 -51 132 -85 -3 -11 0 -26 6 -33 8 -10
17 -7 45 17 32 29 62 33 46 7 -4 -7 -6 -25 -4 -40 2 -20 -4 -33 -19 -44 -11
-8 -20 -22 -19 -31 4 -25 -10 -59 -26 -65 -19 -8 -78 40 -109 89 -40 62 -59
76 -103 72 -31 -2 -39 -7 -41 -26 -3 -20 0 -23 16 -18 12 4 35 -2 58 -16 45
-27 155 -138 148 -149 -7 -12 17 -50 51 -78 16 -14 39 -36 51 -48 12 -13 28
-23 35 -23 12 0 11 -2 0 -9 -12 -8 -13 -14 -3 -36 7 -15 10 -30 7 -35 -3 -4 4
-10 15 -13 11 -3 20 -10 20 -16 0 -13 -26 -15 -34 -2 -3 4 -26 14 -51 21 -34
10 -48 10 -59 1 -11 -9 -31 -7 -90 10 -81 23 -129 60 -108 81 8 8 15 8 27 -2
14 -12 18 -12 25 0 4 7 6 20 2 28 -3 8 3 21 12 28 23 16 12 34 -20 34 -13 0
-24 5 -24 10 0 12 20 49 38 68 7 7 9 18 6 24 -4 6 -16 -6 -27 -26 -33 -58 -53
-48 -60 28 -4 36 -7 40 -36 44 -34 4 -37 1 -19 -28 19 -30 5 -32 -40 -8 -30
17 -42 29 -42 46 0 29 -40 31 -47 2 -5 -20 -43 -29 -43 -10 0 6 20 52 44 103
29 64 53 101 75 116 28 20 31 28 31 72 0 27 5 49 10 49 6 0 10 -11 10 -24z
m-338 -93 c69 -85 77 -102 71 -135 -6 -30 -26 -42 -55 -32 -19 6 -19 7 3 30
19 20 20 24 5 24 -9 0 -28 -7 -42 -16 -30 -20 -36 -16 -67 56 l-24 55 19 43
c10 23 23 42 27 42 5 0 33 -30 63 -67z m-1179 -278 c40 8 53 -8 80 -92 21 -65
22 -103 2 -103 -8 0 -15 6 -15 13 0 14 -47 67 -60 67 -16 0 -82 100 -76 116 5
13 9 14 20 5 9 -8 28 -10 49 -6z m-13106 -220 c20 -19 44 -35 54 -35 10 0 21
-4 24 -10 4 -6 -8 -10 -30 -10 -35 0 -65 18 -65 39 0 15 -37 23 -57 12 -16 -8
-15 -11 11 -21 16 -6 27 -13 24 -15 -2 -2 -57 -7 -121 -10 -65 -4 -141 -10
-170 -15 -28 -4 -53 -7 -55 -5 -1 1 12 13 30 27 37 28 146 59 227 63 29 2 56
6 59 9 13 13 35 4 69 -29z m14706 -49 c72 -25 91 -36 64 -36 -10 0 -17 -8 -17
-18 0 -11 -8 -26 -19 -36 -15 -13 -24 -14 -46 -6 -22 8 -26 15 -23 35 5 22 2
25 -26 25 -17 0 -44 7 -60 15 -41 22 -56 19 -56 -10 0 -14 -4 -25 -10 -25 -5
0 -10 11 -10 24 0 58 89 72 203 32z m-13396 -56 c22 -23 27 -39 24 -67 -1 -6
3 -14 9 -18 5 -3 10 0 10 7 0 7 9 -2 20 -20 24 -39 25 -49 5 -32 -13 11 -15 8
-15 -13 0 -19 4 -25 15 -21 10 4 15 0 16 -12 0 -18 1 -17 9 1 10 23 12 15 11
-40 -1 -37 -1 -39 14 -21 14 19 15 18 21 -13 5 -23 9 -29 15 -19 6 9 9 4 9
-14 0 -22 -5 -28 -22 -28 -19 0 -20 -2 -8 -10 9 -6 10 -10 3 -10 -6 0 -15 5
-18 10 -4 7 -12 7 -25 0 -26 -14 -90 -13 -90 2 0 8 -3 9 -11 1 -11 -11 -110 2
-119 16 -3 5 -25 11 -50 15 -25 3 -77 16 -116 28 -66 20 -70 23 -60 43 14 31
58 47 100 39 28 -5 37 -3 42 10 3 9 13 16 21 16 8 0 12 -4 9 -9 -6 -9 23 -25
31 -18 11 11 -12 37 -33 37 -19 0 -24 5 -24 26 0 22 -3 24 -22 18 -13 -4 -26
-12 -30 -18 -4 -6 -10 -8 -13 -4 -9 8 25 39 36 33 5 -4 9 1 9 10 0 11 -5 15
-16 11 -8 -3 -12 -2 -9 4 3 6 12 10 20 10 7 0 15 7 19 15 7 20 -4 19 -34 -5
-26 -21 -60 -27 -60 -11 0 5 8 12 18 14 9 2 5 3 -10 1 -16 -2 -28 1 -28 6 0 6
8 10 18 10 10 0 24 6 31 13 11 10 14 10 18 0 8 -21 25 -15 18 6 -3 11 -1 22 5
26 5 3 10 -1 10 -10 0 -9 12 -18 30 -21 37 -8 39 -21 5 -34 -14 -5 -25 -15
-25 -21 0 -8 4 -8 15 1 12 10 16 9 20 -2 5 -13 85 -24 85 -12 0 17 -23 44 -37
44 -34 0 -1 14 42 18 42 3 50 0 90 -35 27 -25 25 -12 -7 36 -18 27 -36 47 -40
45 -10 -6 -10 -1 -1 22 6 16 8 15 17 -7 6 -13 21 -35 33 -49z m62 60 c5 0 7
-12 5 -27 -2 -16 -1 -20 2 -10 3 9 14 17 25 17 25 0 24 -17 -2 -25 -28 -9 -19
-29 15 -33 20 -3 26 0 21 9 -6 9 -2 10 16 5 13 -4 40 -9 59 -13 19 -3 47 -17
63 -31 18 -18 27 -21 27 -11 1 11 4 10 14 -4 13 -16 14 -16 19 4 4 13 1 19 -6
16 -7 -2 -21 -1 -32 4 -16 6 -14 8 13 8 17 1 33 4 33 9 1 4 3 17 4 30 1 13 7
28 13 34 8 8 9 5 5 -11 -3 -12 -1 -21 6 -21 17 0 13 -21 -6 -36 -10 -7 -13
-14 -6 -14 6 0 14 4 18 10 3 5 12 7 20 3 9 -3 15 1 15 8 0 23 17 42 30 34 9
-5 9 -9 1 -14 -7 -5 -2 -12 14 -21 25 -13 34 -30 15 -30 -5 0 -10 5 -10 10 0
6 -4 10 -10 10 -23 0 -8 -28 18 -32 15 -3 36 -8 47 -12 20 -8 20 -7 1 8 -21
17 -15 20 22 10 12 -4 22 -13 22 -20 0 -18 30 -17 53 0 13 10 14 15 6 18 -9 3
-7 6 4 11 10 4 17 2 17 -5 0 -7 4 -7 13 -1 6 6 20 13 29 16 13 4 16 2 12 -11
-2 -9 1 -7 7 6 7 12 16 22 21 22 5 0 6 -4 3 -10 -3 -5 -2 -10 4 -10 5 0 11 6
14 13 4 10 7 10 18 0 16 -16 29 -17 29 -2 0 5 -4 7 -10 4 -5 -3 -10 2 -10 12
0 16 2 16 21 -3 17 -18 19 -24 8 -48 -7 -15 -18 -25 -26 -22 -7 3 -13 2 -13
-2 0 -4 -11 -9 -25 -10 -18 -1 -25 3 -25 15 0 13 -3 14 -11 6 -6 -6 -18 -9
-25 -6 -8 3 -14 0 -14 -6 0 -6 3 -11 8 -11 4 0 15 -11 24 -25 l18 -24 -32 10
c-38 10 -38 10 -27 -18 7 -19 14 -21 53 -17 27 2 46 0 46 -6 0 -5 3 -9 8 -8
11 3 52 -22 52 -32 0 -16 -27 -11 -34 6 -5 12 -19 14 -75 10 l-70 -4 -3 31
c-4 40 -20 41 -29 2 -4 -16 -10 -38 -14 -47 -5 -14 -2 -18 13 -18 12 0 24 5
27 10 10 17 54 11 64 -9 9 -16 6 -19 -19 -25 -28 -5 -43 -26 -19 -26 5 0 7 -5
4 -10 -10 -16 26 -25 37 -9 8 11 9 10 4 -4 -3 -10 0 -20 8 -23 8 -3 19 -19 25
-36 15 -41 14 -55 -1 -40 -19 19 -31 14 -26 -12 4 -18 0 -26 -14 -30 -16 -4
-19 -10 -13 -35 6 -27 3 -32 -19 -41 -15 -5 -29 -16 -32 -23 -3 -8 -17 -12
-37 -9 -23 3 -38 -2 -50 -16 -18 -19 -17 -22 7 -71 14 -27 38 -61 53 -75 26
-25 26 -26 8 -46 -10 -11 -21 -20 -26 -20 -4 0 -30 -16 -59 -35 -34 -23 -64
-35 -86 -35 -36 0 -76 -33 -67 -55 6 -16 -26 -35 -59 -35 -14 0 -27 -8 -33
-22 -6 -12 -19 -26 -30 -32 -11 -6 -33 -21 -48 -33 -34 -28 -55 -29 -73 -5
-10 14 -15 15 -25 5 -18 -18 -26 -16 -32 7 -7 26 -37 26 -70 0 -14 -11 -30
-20 -36 -20 -6 0 -11 -7 -11 -15 0 -8 -10 -23 -22 -35 -16 -15 -24 -17 -30 -8
-9 16 -53 -28 -68 -67 -10 -26 -30 -26 -30 0 0 20 -32 35 -58 28 -17 -4 -24 1
-32 23 -12 32 1 54 22 37 23 -17 72 -9 97 16 21 21 22 26 10 48 -12 22 -10 27
35 69 30 28 46 50 42 59 -3 10 1 15 12 16 52 2 126 27 145 49 21 25 22 36 2
44 -8 3 -14 11 -13 18 2 9 -7 12 -31 10 -22 -2 -31 0 -26 7 3 7 -2 11 -14 11
-12 0 -26 -9 -33 -20 -7 -11 -21 -20 -31 -20 -16 0 -15 3 5 30 18 25 20 34 11
49 -9 15 -6 20 20 34 18 10 46 19 62 22 17 2 64 10 105 16 41 6 101 8 133 5
35 -3 57 -2 57 4 0 6 18 10 40 10 27 0 43 5 46 15 4 11 21 15 55 15 42 0 49 3
49 19 0 11 -9 26 -20 34 -11 8 -17 17 -13 20 3 4 1 7 -5 7 -6 0 -17 -6 -24
-13 -21 -22 -85 -39 -117 -32 -20 4 -38 1 -55 -10 -34 -23 -86 -12 -79 15 3
12 -1 22 -11 26 -9 3 -16 13 -16 21 0 16 -23 15 -63 -2 -15 -6 -17 -4 -11 19
7 31 -6 34 -30 7 -10 -11 -32 -25 -49 -32 -18 -7 -39 -18 -48 -26 -14 -12 -22
-11 -53 3 -46 22 -46 34 -1 27 27 -4 35 -2 33 8 -2 8 14 19 40 27 45 15 51 27
28 57 -12 17 -16 18 -32 5 -18 -14 -18 -14 -4 5 8 11 15 21 15 22 1 2 17 -2
35 -7 19 -5 58 -7 87 -3 51 5 54 8 51 31 -2 14 3 27 10 29 7 3 10 -1 6 -11 -5
-12 0 -14 28 -10 20 3 40 0 52 -9 18 -13 22 -12 43 9 13 13 30 24 38 24 24 0
29 40 7 60 -11 10 -23 16 -26 13 -3 -4 -13 2 -20 13 -8 10 -18 16 -22 11 -4
-4 -2 -7 4 -7 7 0 12 -12 12 -26 0 -24 -2 -26 -32 -20 -35 6 -70 42 -90 91 -6
16 -25 50 -42 75 -17 25 -36 54 -42 65 -6 11 -23 42 -38 69 -21 37 -23 47 -11
42 9 -3 20 -6 24 -6z m13488 -80 c46 -31 88 -34 76 -4 -6 16 22 20 32 4 4 -6
23 -7 44 -4 36 6 39 4 45 -21 l7 -28 15 22 c13 17 19 20 30 10 8 -6 14 -21 14
-33 1 -11 7 -32 15 -46 22 -38 19 -70 -5 -70 -11 0 -23 7 -26 15 -4 8 -15 15
-25 15 -11 0 -28 5 -39 12 -10 7 -23 8 -27 4 -4 -5 -2 -11 5 -13 6 -3 12 -12
12 -20 0 -11 -5 -13 -17 -7 -10 4 -36 9 -58 12 -24 3 -45 12 -53 24 -11 15
-17 16 -28 7 -10 -8 -22 -8 -45 0 -38 13 -49 14 -49 3 0 -5 11 -14 25 -20 37
-17 33 -45 -5 -40 -33 5 -38 -3 -15 -22 8 -7 15 -19 15 -26 0 -18 14 -18 30 1
19 23 73 19 98 -7 11 -13 21 -27 21 -33 1 -5 24 -11 52 -13 43 -3 50 -6 44
-20 -7 -15 -12 -40 -14 -67 -1 -17 -126 -65 -168 -65 -27 0 -53 35 -53 72 0
31 -15 45 -24 22 -3 -9 1 -30 9 -47 8 -16 15 -31 15 -33 0 -8 -76 11 -82 20
-4 6 -8 37 -8 68 0 54 -2 58 -27 64 -15 4 -34 2 -45 -5 -22 -14 -21 -14 -37
16 -13 26 -4 53 36 102 27 32 27 34 5 27 -19 -6 -22 -4 -22 18 0 25 36 60 51
50 5 -2 4 -15 -1 -28 -8 -23 -8 -24 22 -15 17 4 38 15 47 22 9 8 22 12 28 10
7 -3 16 4 19 14 3 10 10 26 15 36 10 18 -5 31 -31 25 -7 -2 -15 3 -17 10 -9
23 48 12 94 -18z m-13847 -297 c0 -6 5 -15 12 -19 8 -5 9 -2 5 10 -6 14 -3 16
16 11 12 -4 26 -11 32 -16 5 -5 22 -9 37 -9 15 0 28 -5 28 -11 0 -6 8 -8 19
-4 24 7 71 -4 71 -17 0 -6 -9 -8 -19 -5 -15 4 -22 -2 -30 -23 -20 -59 -57 -60
-179 -3 -54 25 -72 38 -68 49 6 16 -30 35 -51 27 -19 -7 -16 4 7 30 20 23 21
23 70 8 27 -9 50 -21 50 -28z m12018 5 c6 -6 12 -19 12 -29 0 -12 13 -24 34
-33 41 -17 79 -53 71 -66 -4 -6 -16 -10 -28 -10 -20 -1 -21 -2 -4 -14 9 -7 17
-21 17 -30 0 -20 -9 -21 -25 0 -10 14 -17 15 -48 5 -21 -7 -37 -17 -37 -23 0
-6 -10 -8 -23 -5 -12 4 -28 3 -34 -1 -17 -11 -20 -77 -4 -96 9 -10 9 -16 3
-16 -6 0 -16 9 -22 20 -6 11 -17 20 -26 20 -8 0 -32 12 -53 26 -37 24 -39 29
-43 84 -1 32 0 56 5 53 4 -2 16 -1 27 2 16 5 18 10 9 26 -8 16 -14 18 -24 9
-8 -7 -15 -7 -19 -1 -6 10 51 59 97 83 29 15 93 13 115 -4z m418 -9 c7 -6 14
-19 17 -30 5 -18 2 -19 -23 -14 -16 4 -37 1 -47 -5 -15 -9 -12 -10 15 -5 28 6
32 4 32 -15 0 -20 -4 -22 -34 -16 -23 5 -37 2 -46 -9 -11 -13 -14 -12 -31 8
-18 21 -19 22 -49 5 -18 -10 -36 -18 -41 -18 -15 0 -10 26 7 41 8 7 13 20 11
30 -3 12 2 17 20 17 14 0 32 7 41 16 14 14 27 16 67 10 28 -3 55 -10 61 -15z
m-13810 -20 c9 -10 24 -19 33 -19 14 0 14 2 1 10 -22 14 17 13 61 -1 50 -17
52 -22 31 -70 -10 -24 -25 -63 -32 -87 -13 -40 -14 -41 -32 -26 -13 13 -18 14
-18 4 0 -10 -5 -9 -18 3 -26 24 -42 21 -42 -8 0 -30 3 -30 -45 -5 -22 11 -61
20 -90 21 l-50 1 37 12 c20 6 40 14 43 18 11 11 -21 38 -44 38 -12 0 -21 5
-21 11 0 11 -44 7 -94 -8 -15 -4 -13 1 10 31 28 35 29 35 49 16 11 -11 45 -25
75 -31 30 -7 60 -18 66 -26 16 -18 41 -16 53 5 10 16 10 16 11 -1 0 -22 29
-35 40 -17 7 12 -3 76 -14 87 -3 3 -19 0 -36 -7 -31 -13 -77 -8 -137 13 -18 6
-33 15 -33 19 0 4 15 5 33 2 24 -4 28 -3 17 5 -12 9 -10 11 13 11 15 0 27 -4
27 -10 0 -5 5 -10 10 -10 6 0 10 5 10 11 0 18 31 37 51 32 10 -3 25 -14 35
-24z m15558 -50 c-5 -30 -10 -36 -25 -32 -16 4 -19 0 -19 -25 0 -16 -7 -35
-15 -42 -8 -7 -15 -19 -15 -27 0 -23 -28 -26 -57 -5 -16 11 -42 22 -58 24 -24
2 -30 8 -30 28 0 20 6 26 31 30 29 5 67 29 119 76 49 45 78 33 69 -27z
m-15226 -23 l24 -23 -38 -69 c-41 -77 -50 -85 -79 -82 -25 4 -31 37 -27 152
l2 59 47 -7 c30 -4 56 -15 71 -30z m958 -14 c10 -6 27 -13 38 -16 15 -5 16 -9
6 -21 -7 -8 -21 -15 -32 -15 -10 0 -21 -6 -24 -13 -3 -8 -19 -24 -35 -36 l-30
-23 -40 28 c-45 31 -48 45 -16 84 19 24 28 27 68 25 25 -1 54 -7 65 -13z
m12393 -53 c24 -22 42 -41 40 -42 -30 -19 -61 -28 -75 -23 -10 4 -21 1 -25 -5
-12 -20 1 -39 26 -39 30 0 55 -25 55 -56 0 -19 -5 -24 -25 -24 -14 0 -30 9
-37 20 -7 11 -18 20 -25 20 -7 0 -15 10 -17 23 -10 47 -17 148 -11 157 13 21
53 8 94 -31z m-14934 5 c42 -16 78 -54 67 -70 -4 -5 -50 -30 -102 -56 l-95
-47 -25 27 c-55 58 -75 101 -47 103 6 0 37 13 67 29 65 33 81 35 135 14z
m14480 -116 c42 -31 45 -36 43 -78 -1 -25 2 -62 6 -82 7 -30 5 -38 -6 -38 -18
0 -43 28 -53 58 -3 12 -19 29 -35 37 -46 24 -68 86 -35 99 8 3 15 12 15 21 0
23 16 18 65 -17z m-14207 -50 c17 -17 15 -28 -7 -28 -26 0 -33 -35 -11 -55 11
-10 24 -14 29 -10 6 3 23 -3 37 -14 l27 -21 -27 0 c-21 0 -26 -5 -26 -25 0
-18 -8 -29 -27 -38 -16 -6 -31 -16 -35 -22 -4 -5 -8 4 -8 20 0 17 -7 52 -15
79 -16 52 -20 108 -8 119 11 11 58 8 71 -5z m852 -2 c0 -8 7 -16 15 -19 8 -4
23 -24 34 -46 25 -47 67 -62 106 -37 13 9 26 12 28 8 3 -4 5 -50 6 -103 2
-101 -10 -148 -38 -151 -9 0 -21 -2 -28 -2 -22 -2 -26 -16 -8 -30 18 -13 18
-14 -1 -39 -10 -15 -23 -25 -29 -23 -9 2 -63 101 -64 117 -1 4 14 12 32 20 42
16 42 16 27 34 -7 8 -8 15 -2 15 17 0 21 40 5 56 -11 11 -26 14 -48 10 -27 -5
-33 -3 -43 19 -6 14 -19 25 -28 25 -20 0 -43 28 -44 53 0 10 -7 20 -15 23 -27
11 -16 30 33 56 55 31 62 33 62 14z m-973 -66 c4 -48 11 -91 17 -97 11 -12 6
-28 -12 -38 -10 -6 -40 -21 -65 -35 l-47 -24 -49 48 c-46 46 -79 112 -63 128
4 4 46 23 92 42 l85 35 20 -22 c12 -12 21 -28 22 -37z m16654 -17 c34 -32 39
-57 10 -48 -29 9 -38 -16 -13 -33 12 -8 22 -18 22 -23 0 -13 -58 -11 -65 2 -4
6 -14 8 -22 4 -9 -3 -27 2 -42 12 -31 20 -91 25 -84 6 3 -7 0 -13 -6 -13 -6 0
-11 6 -11 13 -1 6 -14 23 -30 37 -33 27 -38 40 -15 40 8 0 15 -6 15 -14 0 -16
35 -27 56 -19 8 3 21 18 29 34 25 47 107 48 156 2z m-2580 -40 c5 -28 5 -89 0
-93 -3 -3 -16 -23 -28 -45 -29 -54 -43 -56 -43 -6 0 23 5 41 11 41 5 0 7 5 3
12 -5 8 -11 6 -19 -5 -25 -35 -61 -14 -67 38 -3 28 0 31 47 47 53 18 94 23 96
11z m2029 -37 c0 -8 -7 -16 -15 -20 -25 -9 -18 -35 8 -28 21 5 21 4 4 -15 -16
-19 -16 -20 1 -36 24 -22 29 -21 35 3 3 11 10 20 16 20 6 0 11 -9 11 -20 0
-11 -6 -20 -14 -20 -7 0 -19 -7 -26 -15 -11 -14 -18 -12 -57 11 -34 20 -55 25
-89 22 -39 -3 -44 -1 -44 18 0 13 12 29 28 40 76 50 142 69 142 40z m-2578
-70 c29 -18 63 -36 74 -40 12 -4 30 -16 40 -27 16 -17 16 -21 3 -35 -12 -11
-22 -13 -42 -5 -32 12 -35 1 -7 -24 13 -12 18 -25 14 -38 -3 -11 -1 -23 6 -27
7 -4 9 -13 6 -19 -4 -6 -12 -8 -18 -5 -10 6 -28 -12 -28 -28 0 -5 17 -8 38 -8
35 0 72 -14 62 -23 -3 -2 -14 -9 -25 -15 -17 -9 -16 -11 17 -25 19 -8 49 -18
67 -22 51 -11 34 -37 -32 -49 -48 -9 -87 13 -87 48 0 13 -7 29 -15 36 -8 7
-15 19 -15 26 0 8 -9 19 -20 26 -11 7 -20 18 -20 25 0 6 -20 67 -45 134 -25
67 -45 124 -45 126 0 10 26 -1 72 -31z m-10187 -23 c3 -16 13 -36 22 -45 8 -9
12 -21 9 -26 -9 -14 45 -92 62 -92 19 0 52 -29 52 -45 0 -6 -16 -17 -35 -24
-40 -14 -46 -38 -13 -50 22 -8 22 -8 -5 -26 -26 -17 -29 -17 -47 0 -21 19 -17
40 12 68 19 19 21 29 12 63 -7 28 -37 21 -59 -12 -17 -27 -35 -32 -35 -10 0 8
-5 16 -10 18 -6 2 -10 17 -10 33 0 17 0 59 0 95 0 58 8 79 31 80 4 0 10 -12
14 -27z m12042 -11 c46 -25 93 -89 93 -126 0 -24 -6 -34 -27 -43 -33 -16 -80
-17 -89 -2 -6 11 -59 8 -99 -5 -11 -4 -28 -1 -39 7 -16 12 -17 16 -5 38 8 13
20 32 28 41 9 12 11 29 7 53 -4 19 -5 39 -2 44 10 16 101 11 133 -7z m-15818
-73 c12 -28 24 -72 26 -97 3 -25 12 -53 20 -62 23 -25 18 -40 -12 -39 -37 0
-96 70 -87 104 4 18 1 23 -23 28 -17 4 -37 20 -50 40 -27 39 -28 47 -9 47 7 0
27 7 42 15 51 27 68 20 93 -36z m262 32 c47 -8 65 -17 108 -57 28 -26 51 -50
51 -54 0 -4 -9 -10 -20 -13 -30 -8 -24 -34 10 -46 28 -9 42 -31 20 -31 -5 0
-10 -7 -10 -15 0 -10 -34 8 -100 52 -98 65 -100 68 -100 105 0 25 -5 41 -15
44 -11 5 -13 24 -2 24 1 0 27 -4 58 -9z m3341 -81 c24 -43 15 -123 -13 -115
-12 4 -21 1 -25 -9 -4 -9 -18 -16 -34 -16 -16 0 -32 -4 -35 -10 -3 -5 -23 -10
-43 -11 -67 -2 -87 -12 -84 -42 2 -23 -2 -28 -28 -33 -35 -7 -35 -27 -1 -32
12 -2 25 -10 28 -18 3 -8 11 -14 18 -14 6 0 20 -9 30 -20 17 -19 17 -21 0 -40
-27 -30 -110 -20 -218 28 -59 26 -69 45 -26 50 32 5 49 29 43 62 -5 22 0 31
24 49 17 11 33 21 37 21 4 0 46 26 93 58 105 69 193 121 207 122 6 0 18 -14
27 -30z m10738 -251 c0 -5 -7 -9 -15 -9 -8 0 -15 -3 -15 -7 1 -20 19 -32 45
-30 26 2 30 -2 35 -28 3 -16 13 -41 22 -55 9 -14 20 -44 24 -68 l7 -43 -37 20
-37 21 -24 -27 c-25 -28 -34 -73 -14 -73 6 0 9 -19 7 -47 l-3 -48 -48 -8 c-75
-12 -77 -8 -74 149 1 74 -1 134 -6 134 -9 0 2 51 16 68 9 11 13 10 24 -5 12
-15 15 -16 23 -3 5 8 10 24 10 36 0 12 10 25 23 31 23 11 37 8 37 -8z m-14496
-178 c24 -11 52 -31 62 -46 15 -23 15 -31 4 -66 -16 -48 -30 -60 -30 -25 0 40
-26 31 -44 -14 -9 -22 -22 -39 -28 -38 -8 2 -12 -6 -11 -19 3 -27 -9 -30 -28
-7 -12 14 -14 14 -25 -1 -11 -15 -15 -15 -43 0 -23 11 -31 23 -31 41 0 19 4
25 15 21 20 -8 29 11 15 28 -10 12 -9 16 6 21 67 22 125 52 130 67 8 25 -3 34
-24 19 -33 -23 -74 -43 -79 -39 -7 8 41 77 54 77 6 0 32 -9 57 -19z m13291
-67 c8 -20 12 -40 9 -46 -3 -5 1 -15 8 -21 8 -7 25 -28 37 -48 l21 -37 -25
-16 c-14 -9 -29 -14 -34 -11 -5 2 -8 -10 -7 -27 1 -23 -4 -33 -15 -36 -19 -4
-26 33 -34 186 -4 76 -2 92 10 92 8 0 22 -16 30 -36z m845 -6 c27 -44 27 -95
0 -103 -22 -7 -26 -20 -10 -30 6 -4 9 -23 8 -43 -3 -33 -1 -37 19 -34 34 5 61
-15 65 -45 2 -16 8 -27 16 -26 13 3 14 -2 6 -34 -4 -13 -13 -23 -22 -23 -19 0
-82 59 -82 77 0 7 -7 10 -15 7 -11 -5 -15 1 -15 19 0 14 -5 29 -10 32 -12 8
-8 203 4 223 11 17 14 15 36 -20z m-13935 -112 c17 -31 17 -39 5 -90 -17 -74
-32 -76 -34 -6 -1 31 -31 34 -31 3 -1 -34 -14 -39 -33 -12 -22 32 -42 69 -42
80 0 8 91 55 111 58 3 1 14 -14 24 -33z m12944 -52 c6 -14 11 -31 11 -38 0 -8
6 -16 14 -19 27 -11 48 -70 47 -135 0 -35 4 -72 10 -83 5 -11 9 -39 7 -62 l-3
-42 -22 40 c-12 23 -24 58 -28 78 -8 40 -19 54 -30 37 -5 -8 -13 -6 -26 6 -20
18 -24 40 -13 69 5 13 9 14 15 4 17 -27 20 1 5 52 -23 84 -27 129 -12 123 7
-3 18 -16 25 -30z m2627 -95 c3 -6 0 -15 -7 -20 -8 -5 1 -6 24 -2 26 4 42 1
55 -10 9 -8 28 -17 42 -19 14 -1 25 -7 25 -13 0 -5 4 -16 9 -23 10 -16 11 -16
-40 -30 -55 -16 -65 -15 -62 6 2 11 -5 18 -21 20 -20 3 -23 0 -18 -17 3 -14 0
-21 -9 -21 -8 0 -14 10 -14 23 0 13 -4 27 -9 33 -5 5 -12 26 -15 47 -6 32 -5
37 13 37 11 0 23 -5 27 -11z m-12418 -65 c19 -13 21 -19 11 -30 -17 -20 -1
-34 42 -37 19 -2 48 -10 65 -19 26 -14 30 -21 26 -47 -4 -26 -9 -31 -32 -31
-29 0 -65 -30 -44 -37 6 -2 18 -9 27 -16 15 -11 14 -17 -9 -72 -14 -33 -30
-70 -35 -82 -16 -41 -46 -29 -66 27 -10 28 -21 50 -26 50 -19 0 -16 -30 7 -71
26 -44 34 -75 17 -65 -5 3 -26 31 -46 61 -35 54 -37 59 -37 148 0 87 -9 123
-29 111 -14 -8 -10 -165 6 -209 19 -52 19 -65 -1 -37 -8 12 -24 22 -35 22 -12
0 -19 7 -19 20 0 21 -33 29 -45 10 -12 -20 -26 -10 -15 11 26 48 30 102 8 107
-11 2 -18 -6 -23 -30 -19 -98 -46 -110 -97 -47 -23 28 -29 44 -26 70 l4 34 13
-32 c15 -38 12 -36 45 -23 19 7 26 17 26 35 0 18 7 28 26 35 17 7 24 16 21 25
-4 8 2 16 12 20 10 3 34 20 54 38 60 55 64 57 96 51 24 -5 31 -3 31 10 0 20
19 21 48 0z m11707 -19 c11 0 21 -8 23 -19 6 -28 -19 -96 -35 -96 -7 0 -13 -9
-13 -20 0 -12 5 -17 14 -14 25 10 29 -17 10 -72 -20 -60 -35 -67 -53 -28 -10
22 -9 31 4 50 13 20 13 24 1 24 -7 0 -13 8 -12 18 1 12 -5 16 -19 14 -18 -2
-17 0 5 17 14 11 28 21 33 21 12 0 8 78 -5 82 -7 3 -9 12 -5 22 4 11 11 14 19
9 7 -4 22 -8 33 -8z m960 -85 c-4 -17 -10 -30 -15 -30 -4 0 -16 -12 -25 -27
-15 -23 -16 -28 -3 -37 17 -13 31 -95 19 -115 -10 -16 -49 -6 -73 20 -21 22
-23 55 -5 62 15 6 52 76 44 84 -7 6 -32 -22 -60 -67 -30 -47 -61 -51 -82 -9
-9 17 -14 41 -11 52 3 12 0 27 -6 34 -7 9 -7 17 1 27 16 19 147 58 171 51 10
-3 22 -1 26 6 12 20 26 -18 19 -51z m-9743 -37 c10 -16 26 -63 37 -104 17 -68
17 -75 2 -93 -21 -23 -161 -116 -177 -116 -6 0 -17 13 -24 29 -16 41 -52 72
-69 62 -16 -10 -8 -41 11 -41 19 -1 51 -49 44 -67 -4 -9 -9 -13 -13 -10 -3 4
-14 2 -24 -4 -14 -7 -21 -5 -31 11 -16 26 -28 26 -28 0 0 -21 -24 -28 -35 -10
-9 15 -19 12 -51 -15 -16 -14 -34 -25 -40 -25 -13 0 -74 30 -74 36 0 2 16 19
35 38 19 18 31 37 27 41 -4 5 -2 5 4 2 13 -8 48 39 39 52 -9 16 7 41 26 41 12
0 19 7 19 20 0 11 6 20 13 20 18 0 67 24 67 33 0 4 11 7 24 7 14 0 28 5 32 11
3 6 18 9 32 6 15 -3 36 2 51 13 14 9 39 25 54 34 27 16 27 19 13 35 -16 18
-11 34 8 28 6 -2 19 -17 28 -34z m9945 0 c37 -20 71 -41 75 -47 8 -12 0 -33
-25 -68 -24 -32 -53 -41 -81 -25 -12 7 -34 12 -51 12 -34 0 -34 4 -15 90 14
63 18 75 24 75 3 0 36 -17 73 -37z m-715 -32 c6 -14 10 -32 9 -38 -2 -16 26
-17 31 -1 7 19 28 -1 28 -25 -1 -37 -37 -131 -57 -147 -11 -8 -22 -23 -26 -32
-10 -27 -24 -22 -36 12 -5 17 -17 33 -26 36 -20 8 -19 30 1 38 11 4 14 13 10
30 -5 19 -1 26 14 31 32 10 23 25 -11 18 -28 -5 -30 -4 -27 18 2 14 10 24 19
24 22 0 50 25 43 37 -3 5 -12 7 -20 4 -8 -3 -14 0 -14 7 0 7 12 13 26 13 19 2
28 -5 36 -25z m866 -63 c17 -17 15 -45 -5 -57 -10 -5 -17 -22 -18 -38 0 -26
-3 -28 -40 -28 -22 0 -50 6 -63 13 -24 14 -47 8 -36 -10 7 -12 -35 -1 -50 12
-15 15 2 43 22 35 43 -19 99 14 117 68 7 20 55 23 73 5z m-3301 -15 c9 -27 67
-102 78 -103 11 0 35 -68 35 -100 0 -21 -19 -26 -48 -11 -9 5 -24 12 -33 14
-9 3 -25 28 -35 56 -10 28 -23 51 -30 51 -13 0 -29 48 -19 58 3 3 12 -3 19
-14 13 -17 14 -15 9 24 -6 43 11 61 24 25z m-9560 -22 c-5 -22 10 -31 49 -31
29 0 64 -16 64 -30 0 -5 -10 -12 -22 -15 -13 -4 -32 -16 -43 -26 -17 -15 -87
-38 -119 -39 -13 0 1 67 24 116 22 44 57 63 47 25z m9063 -85 c0 4 11 -3 25
-16 14 -13 25 -20 25 -16 0 4 20 -4 45 -18 25 -15 45 -25 45 -23 0 3 30 -3 68
-13 64 -16 68 -19 81 -57 13 -37 13 -43 -7 -82 -25 -48 -28 -81 -8 -81 8 0 17
-7 20 -16 3 -9 13 -14 20 -11 18 7 29 -20 17 -41 -9 -16 -10 -16 -16 0 -6 14
-11 15 -26 8 -16 -9 -20 -6 -25 17 -4 15 -12 33 -18 40 -6 7 -17 19 -24 28 -7
8 -16 15 -21 15 -11 0 -2 -51 12 -68 6 -8 -5 -4 -24 7 -45 26 -70 68 -49 81 9
6 13 23 11 52 -3 67 -21 72 -21 6 0 -31 -4 -59 -9 -62 -14 -9 -61 53 -61 80 0
14 -6 27 -14 30 -8 3 -18 20 -22 37 -3 18 -11 43 -16 56 -8 23 -9 23 -28 6
-19 -17 -20 -17 -26 1 -3 11 -10 29 -15 42 -13 33 -12 33 26 11 19 -12 35 -17
35 -13z m-698 -174 c2 -4 26 -24 54 -45 71 -51 88 -78 79 -133 -3 -24 -11 -46
-16 -50 -6 -3 -8 -12 -5 -20 10 -27 -24 -27 -58 0 -63 48 -105 174 -80 240 6
17 20 21 26 8z m-68 -129 c7 -63 -2 -173 -15 -173 -14 0 -64 24 -71 35 -11 14
-10 63 1 69 4 3 11 22 14 42 6 33 40 84 57 84 4 0 10 -26 14 -57z m50 -58 c8
-41 51 -95 75 -95 9 0 26 -7 37 -15 17 -13 17 -16 3 -27 -8 -7 -18 -21 -22
-32 -6 -15 -14 -17 -44 -11 -21 4 -47 16 -59 28 -19 20 -21 30 -16 105 5 86
15 105 26 47z m701 9 c14 -9 25 -22 25 -28 0 -7 5 -17 11 -23 19 -19 18 -74
-1 -107 -15 -27 -22 -31 -55 -29 -21 2 -40 5 -43 7 -2 3 -7 25 -9 48 -3 24
-10 50 -17 58 -42 56 -38 74 19 83 17 2 34 5 38 6 4 0 19 -6 32 -15z m-8965
-74 c0 -5 -7 -10 -15 -10 -8 0 -15 -4 -15 -8 0 -10 56 -52 69 -52 15 0 21 -14
11 -30 -6 -10 -12 -11 -22 -3 -14 12 -88 20 -103 11 -40 -22 -106 -12 -105 17
1 16 123 84 153 84 15 1 27 -3 27 -9z m8953 -145 c18 -2 35 -3 40 -4 12 -2 8
-45 -7 -67 -8 -11 -17 -37 -21 -57 -8 -41 -15 -43 -65 -19 -31 16 -35 21 -32
52 1 19 2 52 2 73 0 35 1 37 25 31 14 -3 40 -8 58 -9z m-503 -63 c31 -15 35
-21 35 -57 0 -22 8 -51 18 -65 17 -24 24 -90 10 -90 -8 1 -54 58 -110 138 -19
26 -33 59 -33 75 0 32 11 31 80 -1z m5449 -61 c29 -23 23 -56 -10 -48 -21 6
-23 3 -34 -47 -5 -24 -3 -28 11 -22 10 4 21 1 25 -6 6 -9 11 -9 22 0 11 9 23
9 52 -1 l37 -13 -25 -17 c-32 -21 -51 -22 -66 -3 -6 7 -22 11 -35 9 -17 -4
-27 1 -35 16 -7 11 -24 27 -40 35 -23 13 -28 20 -23 43 11 64 72 92 121 54z
m-5950 -16 c25 -13 58 -29 73 -34 35 -13 61 -54 63 -99 1 -30 5 -38 23 -40 12
-2 22 -8 22 -13 0 -5 -28 -8 -62 -7 l-63 3 -17 40 c-9 22 -17 50 -17 61 -1 12
-8 27 -16 34 -8 7 -12 16 -9 21 2 5 -11 15 -31 23 -19 8 -35 20 -35 25 0 17
18 13 69 -14z"/>
<path d="M16562 2068 c-12 -6 -25 -22 -28 -34 -3 -13 -21 -35 -40 -49 -27 -20
-34 -33 -34 -59 0 -19 7 -39 15 -46 8 -7 15 -28 15 -47 0 -32 -2 -35 -24 -29
-30 7 -54 -21 -63 -77 -3 -20 -10 -40 -14 -43 -14 -8 -10 -76 6 -108 19 -35
13 -44 -19 -27 -46 25 -62 -15 -26 -62 11 -14 20 -28 20 -31 0 -3 -20 -3 -43
0 -35 5 -45 3 -50 -10 -4 -9 -16 -16 -27 -16 -27 0 -25 -18 6 -64 l26 -38 -31
23 -31 23 -20 -22 c-19 -20 -20 -23 -4 -46 8 -14 13 -30 9 -36 -3 -5 -2 -10 4
-10 6 0 15 -9 21 -20 9 -17 5 -25 -27 -55 -34 -32 -36 -37 -20 -46 9 -5 17
-14 17 -19 0 -16 -39 -11 -72 8 -30 17 -31 17 -45 -5 -10 -15 -26 -23 -45 -23
-40 0 -45 -24 -14 -68 22 -31 23 -38 11 -45 -13 -7 -13 -10 -1 -23 8 -7 26
-18 40 -24 17 -6 26 -17 26 -31 0 -11 9 -32 20 -46 18 -23 18 -26 3 -49 -18
-28 -33 -17 -33 25 0 13 -11 32 -25 43 -14 11 -25 26 -25 33 0 8 -11 26 -25
41 -27 29 -55 27 -55 -6 0 -24 -22 -26 -40 -5 -21 25 -33 17 -26 -16 5 -28 4
-30 -10 -18 -8 7 -22 25 -30 41 -11 22 -20 27 -35 23 -20 -7 -22 -3 -33 45 -4
18 -16 29 -43 38 -63 21 -68 20 -65 -13 1 -16 3 -42 3 -57 0 -20 11 -37 39
-60 30 -23 40 -39 40 -60 0 -19 15 -44 50 -83 51 -56 60 -75 38 -75 -7 0 -19
-4 -27 -9 -12 -8 -9 -15 12 -41 30 -35 33 -52 13 -69 -17 -14 -10 -48 15 -76
11 -13 16 -29 13 -42 -3 -12 1 -36 10 -54 19 -38 20 -61 4 -77 -9 -9 -8 -16 3
-29 32 -40 41 -64 29 -78 -9 -11 -4 -22 24 -50 19 -19 42 -35 51 -35 14 0 35
-37 35 -61 0 -11 -40 10 -56 30 -6 8 -16 11 -23 7 -6 -4 -14 0 -17 8 -4 9 -18
16 -34 16 -28 0 -53 11 -102 44 -24 15 -37 17 -85 10 -48 -8 -58 -12 -58 -29
0 -14 10 -22 38 -30 43 -12 57 -28 50 -56 -4 -16 0 -19 25 -19 35 0 68 -16
100 -48 l22 -22 374 0 c290 0 375 3 379 13 4 9 6 9 6 0 1 -10 134 -13 630 -13
538 0 630 2 641 15 6 8 9 19 5 25 -4 6 9 10 36 10 28 0 46 6 54 17 10 13 16
15 26 6 28 -23 99 -13 99 13 0 35 48 -2 71 -54 8 -19 21 -32 31 -32 23 0 23 0
-7 40 -14 19 -25 45 -25 58 0 14 -4 21 -11 17 -19 -12 -48 25 -47 61 1 31 18
50 18 22 1 -20 36 -58 54 -58 10 0 16 -9 16 -25 0 -14 6 -25 12 -25 13 0 78
-68 78 -82 0 -4 17 -8 38 -7 32 0 35 2 19 12 -10 7 -58 51 -108 98 -66 65 -87
91 -83 104 6 13 15 16 43 12 l36 -6 -24 20 c-14 11 -37 23 -53 26 -44 9 -33
23 17 23 33 0 45 4 45 15 0 8 9 15 20 15 32 0 37 30 9 51 l-24 17 27 7 c15 4
31 4 37 1 15 -10 24 13 11 29 -6 8 -24 16 -38 18 -24 4 -25 5 -7 11 18 6 58
73 60 101 0 6 9 23 20 38 15 24 16 30 4 38 -8 5 -23 6 -33 3 -15 -5 -18 -2
-13 15 3 11 3 21 0 21 -11 0 -48 -47 -64 -81 -9 -19 -29 -41 -45 -49 -16 -8
-33 -21 -37 -27 -4 -7 -14 -13 -21 -13 -7 0 -25 -12 -40 -27 -14 -14 -28 -24
-30 -22 -2 2 -9 13 -15 24 -11 18 -12 15 -7 -16 7 -58 -27 -139 -60 -139 -7 0
-17 -8 -23 -18 -8 -14 -13 -15 -31 -4 -11 7 -25 10 -30 7 -5 -3 -13 2 -18 11
-15 26 -52 1 -52 -35 0 -26 -4 -30 -42 -37 -24 -5 -50 -9 -58 -9 -8 0 -16 -10
-18 -22 -4 -29 -32 -30 -39 -3 -5 18 -11 20 -48 14 -32 -4 -49 -2 -68 11 -32
21 -54 14 -109 -32 -28 -23 -47 -49 -55 -75 -6 -22 -19 -48 -29 -59 -18 -20
-6 -27 13 -8 7 7 13 8 17 0 7 -10 -40 -28 -50 -19 -2 3 2 20 10 39 27 66 29
79 11 79 -22 0 -65 -30 -65 -45 0 -8 -10 -15 -22 -17 -13 -2 -29 -15 -37 -32
l-14 -29 -13 31 c-15 37 -22 39 -39 15 -12 -17 -15 -17 -49 0 -20 9 -45 17
-55 17 -17 0 -18 5 -11 36 13 58 23 62 148 67 62 3 116 8 119 11 11 10 -30 35
-58 36 -14 0 -34 6 -44 14 -18 13 -18 14 3 25 31 16 28 25 -15 44 -40 17 -127
14 -149 -4 -7 -6 -15 -4 -23 4 -14 18 -4 27 30 27 40 0 47 20 15 45 l-28 22
29 20 c15 11 61 25 101 32 59 11 72 16 72 31 0 10 -5 22 -11 26 -12 7 -134 18
-186 16 -18 0 -33 1 -33 2 0 1 25 20 55 42 58 42 72 61 55 78 -5 5 -10 22 -10
37 0 38 -13 43 -40 14 -25 -26 -40 -25 -40 4 0 10 -9 26 -20 36 -14 12 -17 22
-10 29 13 13 -7 36 -32 36 -16 0 -18 3 -9 13 14 18 4 27 -28 28 l-26 0 25 10
c14 6 44 9 67 6 49 -5 56 -1 42 25 -9 17 -19 19 -62 15 -29 -2 -62 -8 -74 -12
-38 -12 -29 29 12 61 35 26 48 68 23 76 -13 5 12 50 46 83 l21 20 -22 3 c-20
3 -20 5 -7 30 13 26 13 27 -12 30 -14 2 -32 -2 -40 -9 -8 -6 -17 -9 -20 -6 -3
3 12 18 35 34 48 33 56 58 14 42 -15 -6 -34 -16 -42 -22 -12 -10 -13 -9 -7 8
5 11 11 31 14 44 4 20 2 23 -13 18 -14 -6 -16 -4 -10 10 14 35 11 48 -14 48
-19 0 -27 -10 -43 -50 -16 -41 -18 -63 -13 -131 8 -90 -2 -112 -34 -73 -30 37
-47 19 -55 -57 -4 -42 -3 -71 4 -78 14 -14 13 -38 -6 -74 -15 -30 -34 -43 -34
-23 0 5 -20 22 -44 38 -39 25 -44 32 -42 63 1 32 -1 35 -31 38 -37 4 -52 31
-27 49 26 19 -1 47 -38 39 -15 -3 -30 -1 -34 5 -3 6 -13 8 -22 4 -10 -4 -6 6
11 22 15 16 27 37 27 46 0 10 11 23 25 29 28 13 33 33 9 42 -13 5 -11 12 15
45 18 22 29 46 25 54 -10 26 -53 30 -91 7 -41 -24 -43 -24 -43 -4 0 12 -6 15
-25 10 l-26 -7 24 38 c19 30 32 39 64 45 77 13 153 55 153 83 0 18 -63 28 -93
14 -28 -13 -81 -4 -72 11 3 6 22 10 42 10 63 0 169 37 188 66 9 14 15 27 13
29 -2 1 -27 8 -56 14 -49 10 -57 9 -119 -19 -36 -17 -68 -30 -70 -30 -2 0 -3
17 -2 38 3 43 33 110 54 118 13 5 95 119 95 131 0 9 -75 -8 -97 -23 -12 -7
-24 -10 -27 -5 -5 8 51 119 76 148 11 14 2 33 -15 32 -7 0 -22 -5 -35 -11z
m88 -1253 c0 -8 -4 -15 -10 -15 -16 0 -12 -32 6 -52 16 -16 16 -18 0 -24 -9
-3 -16 -12 -16 -20 0 -7 -13 -20 -30 -29 -16 -9 -30 -20 -30 -25 0 -6 -8 -10
-17 -10 -24 0 -53 -30 -53 -56 0 -40 -10 -56 -27 -42 -11 9 -22 9 -49 -1 -20
-7 -38 -10 -41 -8 -9 10 8 27 28 27 10 0 19 4 19 9 0 5 10 11 22 14 17 5 19 9
9 20 -16 21 34 77 69 77 15 0 31 9 38 20 15 24 7 42 -16 39 -30 -3 -31 1 -4
31 15 17 36 30 50 30 12 0 25 7 28 15 4 8 10 15 15 15 5 0 9 -7 9 -15z m334
-515 c2 -101 -30 -180 -49 -120 -8 24 -28 26 -45 5 -7 -9 -15 -13 -18 -11 -7
8 51 66 65 66 7 0 13 7 13 15 0 8 -8 15 -17 15 -9 0 -25 7 -35 17 -15 14 -24
14 -57 5 -48 -15 -78 -15 -87 -1 -9 16 7 29 70 54 54 22 56 22 72 4 23 -25 33
-24 44 7 6 15 16 24 26 22 13 -2 17 -18 18 -78z"/>
<path d="M18606 914 c-6 -18 12 -81 54 -189 4 -11 15 -45 25 -75 10 -30 33
-85 52 -122 18 -37 33 -76 33 -87 0 -11 9 -25 20 -31 11 -6 23 -23 26 -37 4
-15 18 -42 31 -61 12 -19 23 -45 23 -58 0 -12 3 -30 7 -40 4 -11 2 -15 -7 -12
-8 2 -18 17 -23 34 -6 16 -18 40 -27 54 -10 14 -21 40 -25 58 -4 18 -13 36
-20 39 -8 2 -17 18 -20 34 -4 16 -11 32 -17 35 -6 4 -21 31 -34 60 -13 30 -29
54 -34 54 -6 0 -17 15 -25 33 -7 17 -25 43 -39 56 -14 13 -33 45 -42 70 -10
25 -21 50 -26 55 -4 6 -8 25 -8 44 0 20 -4 31 -10 27 -6 -4 -17 -1 -25 5 -22
18 -19 -1 11 -76 27 -67 26 -87 -1 -64 -9 7 -18 11 -20 8 -3 -3 18 -29 45 -59
28 -30 53 -65 57 -78 3 -14 17 -40 30 -59 12 -19 23 -41 23 -49 0 -9 11 -28
25 -45 14 -16 25 -35 25 -43 0 -7 7 -18 15 -25 8 -7 15 -23 15 -36 0 -14 6
-24 14 -24 15 0 72 -88 63 -97 -8 -8 -143 60 -157 79 -3 4 -37 24 -75 44 -39
20 -77 42 -85 49 -32 26 -43 29 -32 9 15 -29 43 -51 84 -68 20 -9 54 -27 75
-42 21 -14 79 -45 129 -68 77 -37 93 -49 108 -80 10 -21 17 -54 15 -74 -3 -60
-1 -66 16 -52 10 9 15 9 15 1 0 -6 12 -11 26 -11 20 0 24 4 19 19 -3 10 -1 31
5 46 10 27 11 27 30 10 11 -10 20 -31 20 -47 0 -23 4 -28 23 -28 13 0 29 6 36
12 11 10 14 10 18 1 3 -7 16 -13 30 -13 25 0 25 1 9 25 -22 33 -20 38 9 33 31
-6 31 -5 0 27 -22 21 -25 31 -19 60 7 38 -1 45 -21 18 -7 -10 -19 -14 -29 -10
-14 6 -16 15 -11 49 3 26 0 61 -8 88 l-13 45 -8 -37 c-8 -44 -11 -46 -37 -15
-27 32 -32 73 -19 147 7 36 14 96 16 134 2 61 1 69 -17 73 -13 4 -24 22 -35
59 -8 30 -20 52 -25 49 -13 -8 -11 -22 5 -58 40 -88 57 -210 37 -262 -7 -18
-10 -15 -29 20 -11 22 -26 69 -32 103 -7 34 -16 62 -21 62 -5 0 -8 -25 -8 -55
1 -39 6 -58 18 -64 8 -5 16 -22 17 -38 0 -15 6 -39 11 -53 16 -38 26 -120 15
-120 -10 0 -54 78 -67 119 -4 12 -17 38 -30 57 -13 19 -27 49 -31 67 -3 17
-13 41 -21 53 -8 12 -30 73 -49 135 -19 62 -41 120 -49 129 -8 9 -21 34 -28
56 -12 34 -15 36 -21 18z"/>
<path d="M15060 301 c-21 -17 -23 -23 -14 -48 5 -15 24 -37 41 -48 39 -24 53
-70 29 -93 -10 -10 -16 -12 -16 -4 0 28 -99 57 -127 37 -17 -13 -15 -16 25
-50 53 -46 54 -59 5 -51 l-38 6 30 -25 c28 -23 37 -25 141 -25 106 0 112 1
127 23 21 32 7 49 -34 45 -29 -3 -34 0 -31 17 1 11 8 30 14 42 14 27 5 60 -27
104 -14 19 -31 46 -37 62 -15 33 -51 36 -88 8z"/>
</g>
</svg>
