<svg height="512" viewBox="0 0 60 60" width="512" xmlns="http://www.w3.org/2000/svg"><g id="Page-1" fill="none" fill-rule="evenodd"><g id="066---Contact" fill="rgb(0,0,0)" fill-rule="nonzero" transform="translate(-1)"><path id="Shape" d="m57 10h-35.5l-2.3-7.609c-.544456-1.77224723-2.4139231-2.77610467-4.192-2.251l-5.093 1.5c-.56105364.16595283-1.06978864.47388045-1.477.894l-5.738 5.943c-.43145606.45090449-.72918899 1.01278883-.86 1.623-.585 2.7-2.2 12.488 1.63 25.15s10.6 19.976 12.59 21.915c.4458926.4377295 1.0041212.743665 1.613.884l8.093 1.867c.2502155.0578152.5061919.0870026.763.087.3263083-.0002565.6509114-.0470614.964-.139l2.818-.831 2.271-.67c.8645741-.2491189 1.5921243-.8364229 2.018-1.629.4243486-.7792075.5176777-1.6962822.259-2.545l-1.267-4.189h23.408c2.209139 0 4-1.790861 4-4v-32c0-2.209139-1.790861-4-4-4zm-15.75 19.7 17.627-16.366c.0792762.2131971.1208955.4385504.123.666v32c-.0028739.2142773-.0403571.426682-.111.629zm15.75-17.7c.1134309.001659.2265112.013034.338.034l-20.938 19.434c-.7671063.7114344-1.9528937.7114344-2.72 0l-14.4-13.331 1.061-.313c.8629218-.2508511 1.58893-.8377828 2.015-1.629.4237886-.7787287.5164114-1.6952259.257-2.543l-.503-1.652zm-40.266 29.231c-2.0645338-2.5274169-3.5996408-5.4442563-4.514-8.577-1.2915666-3.9473972-1.4677101-8.1748413-.509-12.216.0206463-.054505.0665365-.0955451.123-.11l5.207-1.535 11.744 10.868zm16.1 14.551c-.1733981.3213684-.4689984.5592906-.82.66l-1.326.391-2.435-8.058c-.0983122-.3480475-.3768917-.6158888-.7285331-.7004505-.3516414-.0845618-.7215395.0273352-.9673465.2926298-.2458071.2652947-.3292129.6426393-.2181204.9868207l2.436 8.046-1.846.544c-.2320936.0689503-.4781017.0765304-.714.022l-8.093-1.866c-.2507845-.0586037-.4805441-.1852483-.664-.366-1.9-1.855-8.387-8.858-12.074-21.062s-2.149-21.572-1.59-24.15c.05376705-.2474084.17489673-.4751322.35-.658l5.732-5.94c.1653455-.17138312.3719497-.2974117.6-.366l1.861-.548 2.435 8.057c.1274052.422037.5161516.7108549.957.711.097963.0004963.1954249-.014005.289-.043.5284173-.1597559.827423-.7174822.668-1.246l-2.427-8.044 1.314-.387c.7258381-.2187973 1.4925311.18751878 1.719.911l3.4 11.26c.1044056.3376924.0683588.7032074-.1 1.014-.1738983.3211602-.469245.5592384-.82.661l-1.327.391-.393-1.3c-.1698199-.5152426-.7194922-.8011074-1.2388349-.6442735-.5193428.1568339-.8189142.6991579-.6751651 1.2222735l.389 1.288-5.258 1.55c-.7208631.210635-1.28264754.7773308-1.487 1.5-1.0548262 4.4026332-.8731464 9.011071.525 13.317 1.2278893 4.3705059 3.631076 8.3204759 6.948 11.42.5640227.4973575 1.3451786.6675852 2.065.45l5.271-1.554.393 1.3c.0983122.3480475.3768917.6158888.7285331.7004505.3516414.0845618.7215395-.0273352.9673465-.2926298.2458071-.2652947.3292129-.6426393.2181204-.9868207l-.389-1.288 1.313-.387c.7259232-.217112 1.4917411.1885043 1.72.911l3.4 11.261c.1051884.3399216.0680227.7079703-.103 1.02zm.153-7.782-1.532-5.071c-.5453068-1.775563-2.4195272-2.7800559-4.2-2.251l-8.5 2.506c-.061043.0183012-.1271534.0064162-.178-.032-.14-.123-.3-.276-.485-.45l12.164-11.68 2.064 1.911c1.5371445 1.4173437 3.9048555 1.4173437 5.442 0l2.02-1.876 17.607 16.9c-.1279357.0270994-.2582342.0415026-.389.043z"/><path id="Shape" d="m27 16h16c.5522847 0 1-.4477153 1-1s-.4477153-1-1-1h-16c-.5522847 0-1 .4477153-1 1s.4477153 1 1 1z"/><path id="Shape" d="m56 22c-.5522847 0-1 .4477153-1 1v14c0 .5522847.4477153 1 1 1s1-.4477153 1-1v-14c0-.5522847-.4477153-1-1-1z"/></g></g></svg>