<?xml version="1.0" encoding="iso-8859-1"?>
<!-- Generator: Adobe Illustrator 19.0.0, SVG Export Plug-In . SVG Version: 6.00 Build 0)  -->
<svg version="1.1" id="Capa_1" xmlns="http://www.w3.org/2000/svg" xmlns:xlink="http://www.w3.org/1999/xlink" x="0px" y="0px"
	 viewBox="0 0 512 512" style="enable-background:new 0 0 512 512;" xml:space="preserve">
<g>
	<g>
		<path d="M467,91h-90.188L360.23,41.257C358.188,35.131,352.456,31,346,31H166c-6.457,0-12.188,4.131-14.23,10.257L135.188,91H45
			c-24.813,0-45,20.187-45,45v90c0,5.693,3.224,10.896,8.321,13.431L15,242.752V436c0,24.813,20.187,45,45,45h392
			c24.813,0,45-20.187,45-45V242.752l6.679-3.321C508.776,236.896,512,231.693,512,226v-90C512,111.187,491.813,91,467,91z
			 M176.812,61h158.377l10,30H166.812L176.812,61z M467,436c0,8.271-6.729,15-15,15H60c-8.271,0-15-6.729-15-15V257.669
			l137.097,68.17C186.598,345.934,204.567,361,226,361h60c21.433,0,39.402-15.066,43.903-35.161L467,257.669V436z M211,316
			c0-8.271,6.729-15,15-15h60c8.271,0,15,6.729,15,15s-6.729,15-15,15h-60C217.729,331,211,324.271,211,316z M482,216.707
			L325.528,294.51C317.889,280.516,303.036,271,286,271h-60c-17.035,0-31.889,9.516-39.528,23.51L30,216.707V136
			c0-8.271,6.729-15,15-15c9.459,0,413.048,0,422,0c8.271,0,15,6.729,15,15V216.707z"/>
	</g>
</g>
<g>
</g>
<g>
</g>
<g>
</g>
<g>
</g>
<g>
</g>
<g>
</g>
<g>
</g>
<g>
</g>
<g>
</g>
<g>
</g>
<g>
</g>
<g>
</g>
<g>
</g>
<g>
</g>
<g>
</g>
</svg>
